<?xml version="1.0" encoding="utf-8"?>
<!-- Generator: Adobe Illustrator 24.1.1, SVG Export Plug-In . SVG Version: 6.00 Build 0)  -->
<svg version="1.1" id="Layer_1" xmlns="http://www.w3.org/2000/svg" xmlns:xlink="http://www.w3.org/1999/xlink" x="0px" y="0px"
	 viewBox="0 0 202.59 122.35" style="enable-background:new 0 0 202.59 122.35;" xml:space="preserve">
<style type="text/css">
	.st0{fill:#FF827A;}
</style>
<g>
	<g>
		<path class="st0" d="M107.63,17.14h8.11v10.32c4.77,0.27,9.49,0.66,14.16,1.17v-9.95h7.34v10.85
			c22.72,3.14,44.04,9.15,62.73,17.75C189.56,20.2,149.33,0,101.29,0C53.92,0,14.14,19.64,3.07,46.18
			c18.42-8.15,39.31-13.83,61.44-16.79v-10.7h7.34v9.82c4.68-0.49,9.4-0.87,14.16-1.12V17.14h8.11v9.94
			c2.05-0.05,4.1-0.07,6.15-0.07c2.46,0,4.91,0.04,7.36,0.1V17.14z"/>
	</g>
	<g>
		<path class="st0" d="M202.59,61.08c-0.01-5.4-3.38-10.21-8.34-12.35c-17.2-7.41-36.52-12.66-57.02-15.53v7.68h-7.34v-8.6
			c-4.67-0.52-9.39-0.91-14.16-1.18v8.62h-8.11v-8.96c-2.44-0.07-4.9-0.11-7.36-0.11c-2.06,0-4.11,0.02-6.15,0.07v9h-8.11v-8.68
			c-4.76,0.25-9.49,0.63-14.16,1.13v8.72h-7.34v-7.84c-20.04,2.72-39.02,7.71-56,14.75c-5.05,2.1-8.37,6.96-8.51,12.42
			C0,60.54,0,60.86,0,61.17c0,33.79,45.35,61.17,101.29,61.17c55.94,0,101.29-27.39,101.29-61.17
			C202.59,61.14,202.59,61.11,202.59,61.08z"/>
	</g>
</g>
</svg>
