<?xml version="1.0" encoding="utf-8"?>
<!-- Generator: Adobe Illustrator 24.1.1, SVG Export Plug-In . SVG Version: 6.00 Build 0)  -->
<svg version="1.1" id="Layer_1" xmlns="http://www.w3.org/2000/svg" xmlns:xlink="http://www.w3.org/1999/xlink" x="0px" y="0px"
	 viewBox="0 0 167.55 168.19" style="enable-background:new 0 0 167.55 168.19;" xml:space="preserve">
<style type="text/css">
	.st0{fill:#FF827A;}
</style>
<g>
	<g>
		<path class="st0" d="M165.4,80.12c1.41-0.53,2.27-1.95,2.13-3.45C163.77,33.7,127.71,0,83.77,0c-43.94,0-80,33.7-83.76,76.66
			c-0.13,1.5,0.72,2.92,2.13,3.45C53.77,99.57,113.78,99.57,165.4,80.12z"/>
	</g>
	<g>
		<path class="st0" d="M83.77,104.76c-27.32,0-54.13-4.53-78.94-13.12c-2.35-0.81-4.73,1.14-4.4,3.6
			c5.46,41.17,40.68,72.94,83.34,72.94c42.66,0,77.88-31.77,83.34-72.94c0.33-2.47-2.05-4.42-4.4-3.6
			C137.9,100.24,111.09,104.76,83.77,104.76z"/>
	</g>
</g>
</svg>
