<?xml version="1.0" encoding="utf-8"?>
<!-- Generator: Adobe Illustrator 24.1.1, SVG Export Plug-In . SVG Version: 6.00 Build 0)  -->
<svg version="1.1" id="Layer_1" xmlns="http://www.w3.org/2000/svg" xmlns:xlink="http://www.w3.org/1999/xlink" x="0px" y="0px"
	 viewBox="0 0 158.89 154.62" style="enable-background:new 0 0 158.89 154.62;" xml:space="preserve">
<style type="text/css">
	.st0{fill:#FF827A;}
</style>
<g>
	<path class="st0" d="M152.73,42.98c-3.61-8.96-11.17-15.72-20.43-18.38c-13.97-4-28.41-2.98-37.06-1.71
		c-12.47,1.84-23.11,10.21-27.45,22.05c-7.65,20.89,0.96,47.69,0.96,47.69h-9.07c-4.75-10.97-3.74-33.86-3.74-33.86
		c-0.26,0.16-0.52,0.32-0.77,0.49C45.01,65.78,39.79,77.83,41.7,89.78c5.2,32.52,27.94,32.9,27.94,32.9h73.2
		c12.83-7.63,15.21-33.38,15.21-33.38C160.67,68.72,156.75,52.96,152.73,42.98z"/>
	<rect x="74.44" y="132.42" class="st0" width="46.38" height="22.21"/>
	<rect x="129.53" y="132.42" class="st0" width="11.44" height="22.21"/>
	<rect x="17.92" y="110.65" class="st0" width="11.44" height="22.21"/>
	<path class="st0" d="M49.94,51.12c0.3-0.19,0.6-0.38,0.91-0.57l6.29-3.89c0.44-1.7,0.96-3.38,1.57-5.03
		c4.69-12.8,15.1-22.55,28.01-26.65C81.31,7.55,72.99,2.51,63.65,1.13C55-0.14,40.56-1.16,26.59,2.84
		C17.33,5.5,9.78,12.25,6.16,21.22C2.14,31.2-1.77,46.96,0.85,67.53c0,0,2.38,25.75,15.21,33.38h18.28
		c-0.89-2.92-1.64-6.11-2.2-9.61C29.6,75.46,36.59,59.68,49.94,51.12z"/>
	<path class="st0" d="M38.38,110.65h-0.32v22.21h24.43c-2.74-0.87-5.96-2.27-9.31-4.5C48.37,125.15,42.68,119.71,38.38,110.65z"/>
</g>
</svg>
