<?xml version="1.0" encoding="utf-8"?>
<!-- Generator: Adobe Illustrator 24.1.1, SVG Export Plug-In . SVG Version: 6.00 Build 0)  -->
<svg version="1.1" id="Layer_1" xmlns="http://www.w3.org/2000/svg" xmlns:xlink="http://www.w3.org/1999/xlink" x="0px" y="0px"
	 viewBox="0 0 247.65 66.48" style="enable-background:new 0 0 247.65 66.48;" xml:space="preserve">
<style type="text/css">
	.st0{fill:#FF827A;}
</style>
<g>
	<g>
		<path class="st0" d="M244.03,2.8L244.03,2.8c-4.12-3.71-10.39-3.73-14.59-0.05c-6.62,5.81-15.11,9-23.9,9H42.11
			c-8.79,0-17.28-3.2-23.9-9C14.01-0.93,7.74-0.91,3.62,2.8C1.3,4.89-0.02,7.88,0,11c0.02,3.14,1.39,6.12,3.75,8.19
			C14.37,28.51,28,33.65,42.11,33.65h163.43c14.11,0,27.74-5.13,38.36-14.46c2.36-2.07,3.73-5.06,3.75-8.19
			C247.67,7.88,246.35,4.89,244.03,2.8z"/>
	</g>
	<g>
		<path class="st0" d="M202.83,40.22h-19.65c-3.15,2.75-5.15,6.78-5.15,11.29c0,8.27,6.71,14.98,14.98,14.98
			c8.27,0,14.98-6.71,14.98-14.98C207.98,47,205.98,42.96,202.83,40.22z M193.01,57.72c-3.43,0-6.22-2.79-6.22-6.22
			c0-3.43,2.79-6.22,6.22-6.22c3.43,0,6.22,2.79,6.22,6.22C199.22,54.93,196.43,57.72,193.01,57.72z"/>
	</g>
	<g>
		<path class="st0" d="M64.47,40.22H44.82c-3.15,2.75-5.15,6.78-5.15,11.29c0,8.27,6.71,14.98,14.98,14.98
			c8.27,0,14.98-6.71,14.98-14.98C69.62,47,67.62,42.96,64.47,40.22z M54.65,57.72c-3.43,0-6.22-2.79-6.22-6.22
			c0-3.43,2.79-6.22,6.22-6.22c3.43,0,6.22,2.79,6.22,6.22C60.86,54.93,58.07,57.72,54.65,57.72z"/>
	</g>
</g>
</svg>
