<?xml version="1.0" encoding="utf-8"?>
<!-- Generator: Adobe Illustrator 24.1.1, SVG Export Plug-In . SVG Version: 6.00 Build 0)  -->
<svg version="1.1" id="Layer_1" xmlns="http://www.w3.org/2000/svg" xmlns:xlink="http://www.w3.org/1999/xlink" x="0px" y="0px"
	 viewBox="0 0 160.41 121.84" style="enable-background:new 0 0 160.41 121.84;" xml:space="preserve">
<style type="text/css">
	.st0{fill:#FF827A;}
</style>
<g>
	<g>
		<path class="st0" d="M80.21,41.58c-14.51,0-26.32,11.81-26.32,26.32s11.81,26.32,26.32,26.32s26.32-11.81,26.32-26.32
			S94.72,41.58,80.21,41.58z"/>
	</g>
	<g>
		<path class="st0" d="M148.82,19.06h-29.14L101.94,0H58.47L40.74,19.06H11.59C5.19,19.06,0,24.25,0,30.65v79.6
			c0,6.4,5.19,11.59,11.59,11.59h137.23c6.4,0,11.59-5.19,11.59-11.59v-79.6C160.41,24.25,155.22,19.06,148.82,19.06z M80.21,102.73
			c-19.2,0-34.83-15.62-34.83-34.83S61,33.07,80.21,33.07c19.2,0,34.83,15.62,34.83,34.83S99.41,102.73,80.21,102.73z M145.01,40.41
			c-3.02,0-5.47-2.45-5.47-5.47c0-3.02,2.45-5.47,5.47-5.47c3.02,0,5.47,2.45,5.47,5.47C150.47,37.96,148.02,40.41,145.01,40.41z"/>
	</g>
</g>
</svg>
