<?xml version="1.0" encoding="utf-8"?>
<!-- Generator: Adobe Illustrator 24.1.1, SVG Export Plug-In . SVG Version: 6.00 Build 0)  -->
<svg version="1.1" id="Layer_1" xmlns="http://www.w3.org/2000/svg" xmlns:xlink="http://www.w3.org/1999/xlink" x="0px" y="0px"
	 viewBox="0 0 188.52 171.96" style="enable-background:new 0 0 188.52 171.96;" xml:space="preserve">
<style type="text/css">
	.st0{fill:#FF827A;}
</style>
<g>
	<g>
		<path class="st0" d="M99.79,10.24C96.23,1.86,86.56-2.05,78.18,1.5L10.05,30.43C1.67,33.98-2.24,43.66,1.31,52.04l46.64,109.88
			c3.56,8.38,13.23,12.29,21.61,8.73l68.13-28.92c8.38-3.56,12.29-13.23,8.73-21.61L99.79,10.24z"/>
	</g>
	<g>
		<path class="st0" d="M146.46,18.88c-1.17-23.6-30.68-18.39-30.68-18.39l-0.04,0.09L147.5,75.4L146.46,18.88z"/>
	</g>
	<g>
		<path class="st0" d="M165.74,14.77l0.29,80.36l21.12-52.95C193.98,25.27,173.39,17.15,165.74,14.77z"/>
	</g>
</g>
</svg>
