<?xml version="1.0" encoding="utf-8"?>
<!-- Generator: Adobe Illustrator 24.1.1, SVG Export Plug-In . SVG Version: 6.00 Build 0)  -->
<svg version="1.1" id="Layer_1" xmlns="http://www.w3.org/2000/svg" xmlns:xlink="http://www.w3.org/1999/xlink" x="0px" y="0px"
	 viewBox="0 0 213.62 142.35" style="enable-background:new 0 0 213.62 142.35;" xml:space="preserve">
<style type="text/css">
	.st0{fill:#FF827A;}
</style>
<g>
	<path class="st0" d="M152.36,61.65L152.36,61.65c1.68-31.69-31.11-59.28-73.1-61.5C77.44,0.05,75.62,0,73.82,0
		C34.05,0,1.65,23.53,0.06,53.58c-0.9,16.95,7.98,33.33,24.43,45.17c-3.15,10.15-6.91,17.62-10.65,21.13l-4.04,3.79l5.52,0.52
		c0.09,0.01,0.9,0.08,2.28,0.08c5.88,0,20.63-1.29,33.05-12.99c7.26,2.12,14.83,3.39,22.53,3.8c1.79,0.1,3.62,0.14,5.43,0.14
		C118.37,115.22,150.77,91.69,152.36,61.65z M73.76,103.77c-7.28-0.39-14.42-1.65-21.22-3.74l-5.09-1.57l-3.76,3.78
		c-3.2,3.22-6.9,5.74-11.04,7.54c1.13-2.92,2.21-6.11,3.22-9.54l1.82-6.16l-5.3-3.63C18.32,80.83,10.66,67.6,11.37,54.17
		c1.27-24.03,28.71-42.85,62.45-42.85c1.59,0,3.22,0.04,4.83,0.13c17.79,0.94,34.14,6.92,46.05,16.83
		c11.17,9.29,16.97,20.93,16.34,32.76C139.72,86.21,109.72,105.66,73.76,103.77z"/>
	<path class="st0" d="M198.75,132.83c-2.74-1.42-5.36-4.39-7.56-8.51c4.87-3.9,8.77-8.68,11.36-13.96c4.21-8.56,4.7-16.9,1.45-24.77
		c-6.87-16.63-28.77-26.29-41.21-30.56l-7-2.4l0.38,7.39c0.09,1.68,0.09,3.18,0.02,4.57c-0.76,14.41-8.72,27.72-22.4,37.5
		c-6.3,4.5-13.59,8.09-21.67,10.65l-8.34,2.64l6.51,5.84c12.88,11.56,26.85,17.42,41.5,17.42c6.42,0,12.92-1.14,19.36-3.39
		c9.08,6.37,19.12,7.1,23.25,7.1c1.47,0,2.38-0.09,2.55-0.1l16.66-1.71L198.75,132.83z M183.28,117.76
		c-0.38,0.27-0.77,0.54-1.17,0.81l-3.38,2.29l1.57,3.77c0.73,1.77,1.65,3.71,2.78,5.66c-2.62-0.98-5.34-2.43-7.87-4.54l-2.29-1.91
		l-2.77,1.1c-6.13,2.45-12.31,3.69-18.35,3.69c-9.69,0-19.13-3.2-28.14-9.52c5.76-2.45,11.1-5.43,15.95-8.89
		c15.64-11.18,24.97-26.48,26.44-43.27c10,4.13,24.26,11.68,28.71,22.46c2.14,5.17,1.75,10.58-1.18,16.54
		C191.35,110.48,187.78,114.57,183.28,117.76z"/>
</g>
</svg>
