<?xml version="1.0" encoding="utf-8"?>
<!-- Generator: Adobe Illustrator 24.1.1, SVG Export Plug-In . SVG Version: 6.00 Build 0)  -->
<svg version="1.1" id="Layer_1" xmlns="http://www.w3.org/2000/svg" xmlns:xlink="http://www.w3.org/1999/xlink" x="0px" y="0px"
	 viewBox="0 0 200.35 200.35" style="enable-background:new 0 0 200.35 200.35;" xml:space="preserve">
<style type="text/css">
	.st0{fill:#FF827A;}
</style>
<g>
	<path class="st0" d="M100.18,0C44.85,0,0,44.85,0,100.18s44.85,100.18,100.18,100.18s100.18-44.85,100.18-100.18S155.5,0,100.18,0z
		 M100.18,10.72c4.75,0,9.42,0.38,13.98,1.09l-2.44,54.43c-2.3-0.78-4.71-1.34-7.19-1.64l-6.61-53.85
		C98.66,10.73,99.42,10.72,100.18,10.72z M77.89,186.82c-16.25-4.18-30.73-12.83-42.05-24.55l40.39-35.44
		c5.34,4.8,12.13,8.02,19.62,8.92L77.89,186.82z M100.18,117.25c-9.42,0-17.08-7.66-17.08-17.08s7.66-17.08,17.08-17.08
		c9.42,0,17.08,7.66,17.08,17.08S109.59,117.25,100.18,117.25z M130.93,81.8c-3.83-6.38-9.58-11.47-16.45-14.48l14.97-51.67
		c15.29,5.31,28.7,14.66,38.96,26.76L130.93,81.8z"/>
</g>
</svg>
