<?xml version="1.0" encoding="utf-8"?>
<!-- Generator: Adobe Illustrator 24.1.1, SVG Export Plug-In . SVG Version: 6.00 Build 0)  -->
<svg version="1.1" id="Layer_1" xmlns="http://www.w3.org/2000/svg" xmlns:xlink="http://www.w3.org/1999/xlink" x="0px" y="0px"
	 viewBox="0 0 212.53 165.32" style="enable-background:new 0 0 212.53 165.32;" xml:space="preserve">
<style type="text/css">
	.st0{fill:#FF827A;}
</style>
<g>
	<g>
		<path class="st0" d="M211.91,17.84c-0.95-2.68-3.52-4.44-6.36-4.41c-6.58,0.08-10.47-0.39-12.65-0.84
			c-1.39-0.29-2.49-1.32-2.89-2.68c-3.86-13-23.88-9.48-23.88-9.48c-14.97,1.63-22.98,23.43-22.98,23.43
			c-8.01,25.5-36.88,28.91-36.88,28.91c-11.53,3.85-62.31,3.26-62.31,3.26c-6.49,0.69-11.55,2.91-15.5,5.81
			C11.28,43.49,37.44,24.6,37.44,24.6c-35.32,16.91-23.79,37.71-17.04,46c-4.33,6.83-5.34,13.45-5.34,13.45
			c-1.74,10.09-3.7,31.67-4.28,38.3c-0.11,1.28-0.69,2.47-1.63,3.35l-7.2,6.78c-1.05,0.99-1.65,2.36-1.66,3.8L0,162.81
			c-0.01,1.38,1.1,2.52,2.49,2.52h12.63c0.34,0,0.62-0.27,0.65-0.62c0.27-3.25-2.47-4.31-4.54-4.65c-1.27-0.21-2.2-1.31-2.18-2.6
			l0.19-9.53c0.02-0.99,0.41-1.93,1.08-2.65c1.16-1.26,2.21-3.1,2.21-3.1c2.22-4.3,11.56-10.97,11.56-10.97
			c10.08-7.41,22.09-25.06,22.09-25.06c1.78-3.85,6.52-2.67,6.52-2.67c2.97,2.97,18.68,10.08,18.68,10.08
			c10.24,2.69,44.58,3.61,53.77,3.81c1.39,0.03,2.56,1.03,2.8,2.4c0.8,4.58,1.89,13.83,2.21,17.4c-0.09-3.42-0.09-10.73,0.38,2.63
			c0.43,12.31,5.66,20.22,8.47,23.61c1.01,1.21,2.5,1.91,4.08,1.91h9.84c5.63-2.36-0.3-4.46-0.3-4.46
			c-7.27-2.08-7.56-7.12-7.56-7.12c-2.37-7.41-1.63-27.28-1.63-27.28c0.59-2.97,1.93-0.89,1.93-0.89c-0.3,8.3,1.63,16.01,1.63,16.01
			c4.15,10.82,14.38,7.56,14.38,7.56c3.91-0.41,3.88-1.76,3.06-2.89c-0.73-1.01-1.92-1.63-3.16-1.72c-5.02-0.37-5.53-4.44-5.53-4.44
			c-2.15-7.17-1.89-24.15-1.71-30.48c0.04-1.42,0.69-2.75,1.81-3.63c3.8-2.96,6.89-7.59,9.03-11.48c2.21-4.01,3.35-8.52,3.41-13.09
			l0.21-15.89c0.55-13.38,4.69-21.32,8.46-25.84c2.72-3.26,6.77-5.08,11.01-5.13c6.56-0.08,11.96-1.35,11.96-1.35
			C213,28.79,213.45,22.2,211.91,17.84z"/>
	</g>
	<g>
		<path class="st0" d="M130.25,138.62c0.02-0.07-0.01-0.6-0.09-1.45C130.19,138.08,130.22,138.71,130.25,138.62z"/>
	</g>
	<g>
		<path class="st0" d="M34.16,135.27C37.32,130.91,49.78,113.25,49,106c0,0-11.41,16.64-24.44,27.01c-0.89,0.71-1.24,1.9-0.89,2.98
			c1.02,3.18,2.99,9.91,3.14,15.02c0.03,1.11,0.94,1.99,2.05,1.99H38c1.18,0,2.23-0.84,2.41-2.01c0.18-1.18-0.06-2.64-1.79-3.77
			h-2.88c-1.35,0-2.44-1.11-2.43-2.46l0.1-7.27C33.43,136.69,33.68,135.91,34.16,135.27z"/>
	</g>
</g>
</svg>
