<?xml version="1.0" encoding="utf-8"?>
<!-- Generator: Adobe Illustrator 24.1.1, SVG Export Plug-In . SVG Version: 6.00 Build 0)  -->
<svg version="1.1" id="Layer_1" xmlns="http://www.w3.org/2000/svg" xmlns:xlink="http://www.w3.org/1999/xlink" x="0px" y="0px"
	 viewBox="0 0 135.79 181.32" style="enable-background:new 0 0 135.79 181.32;" xml:space="preserve">
<style type="text/css">
	.st0{fill:#FF827A;}
</style>
<g>
	<g>
		<path class="st0" d="M67.89,0C30.4,0,0,7.4,0,16.52l0.06,0.65l13.09,148.62l0.07,0.78c1.43,8.21,25.36,14.75,54.68,14.75
			s53.24-6.53,54.68-14.75l0.07-0.78l13.09-148.62c0.03-0.22,0.06-0.43,0.06-0.65v0C135.79,7.4,105.39,0,67.89,0z M6.99,16.52
			c1.9-1.46,6.97-4.03,17.73-6.31c11.92-2.52,27.25-3.9,43.18-3.9s31.26,1.39,43.18,3.9c10.76,2.27,15.83,4.85,17.73,6.31l0,0
			c-1.9,1.46-6.97,4.03-17.73,6.31c-0.01,0-0.02,0-0.02,0c-11.91,2.51-27.24,3.9-43.16,3.9c-15.92,0-31.24-1.38-43.16-3.9
			c-0.01,0-0.02,0-0.02,0C13.95,20.55,8.88,17.98,6.99,16.52L6.99,16.52z M116.35,165.24l-0.01,0.09c-0.78,1.03-4.46,3.71-14.2,6.1
			c-9.45,2.31-21.62,3.59-34.26,3.59c-12.64,0-24.81-1.27-34.26-3.59c-9.73-2.38-13.41-5.06-14.2-6.1l-0.01-0.09L6.98,23.82
			c11.08,5.46,34.19,9.22,60.92,9.22s49.84-3.76,60.92-9.22L116.35,165.24z"/>
	</g>
	<g>
		<path class="st0" d="M12.1,50.45c0,0.27,0.03,0.53,0.1,0.79l13.14,107.53c0,5.74,19.12,10.39,42.7,10.39s42.7-4.65,42.7-10.39
			l12.85-107.54c0.06-0.26,0.09-0.52,0.09-0.78c0-7.5-24.98-13.57-55.79-13.57S12.1,42.95,12.1,50.45z"/>
	</g>
</g>
</svg>
