<?xml version="1.0" encoding="utf-8"?>
<!-- Generator: Adobe Illustrator 24.1.1, SVG Export Plug-In . SVG Version: 6.00 Build 0)  -->
<svg version="1.1" id="Layer_1" xmlns="http://www.w3.org/2000/svg" xmlns:xlink="http://www.w3.org/1999/xlink" x="0px" y="0px"
	 viewBox="0 0 183.43 122.06" style="enable-background:new 0 0 183.43 122.06;" xml:space="preserve">
<style type="text/css">
	.st0{fill:#FF827A;}
</style>
<g>
	<path class="st0" d="M182.78,72.54c0,0-0.86-30.78-16.61-53.89C160.14,9.8,151.15,3.28,140.7,0.96c-6.29-1.4-13.83-1.56-21.85,1.51
		c0,0-7.14,2.44-13.04,6.71c-1.78,1.29-3.94,1.94-6.14,1.94h-7.96h-7.96c-2.2,0-4.36-0.65-6.14-1.94
		c-5.9-4.27-13.04-6.71-13.04-6.71C56.55-0.6,49.01-0.44,42.72,0.96C32.27,3.28,23.28,9.8,17.26,18.65
		C1.51,41.77,0.64,72.54,0.64,72.54c-2.73,24.57,4.09,41.63,4.09,41.63c7.05,15.47,24.8,3.41,24.8,3.41
		c6.14-4.32,22.98-23.89,22.98-23.89c2.96-3.87,7.28-5,7.28-5h31.92h31.92c0,0,4.32,1.14,7.28,5c0,0,16.83,19.56,22.98,23.89
		c0,0,17.74,12.06,24.8-3.41C178.69,114.17,185.51,97.11,182.78,72.54z M71.74,49.56c0,2.2-1.78,3.98-3.98,3.98H57.29v10.46
		c0,2.2-1.78,3.98-3.98,3.98h-4.09c-2.2,0-3.98-1.78-3.98-3.98V53.54H34.77c-2.2,0-3.98-1.78-3.98-3.98v-4.09
		c0-2.2,1.78-3.98,3.98-3.98h10.46V31.02c0-2.2,1.78-3.98,3.98-3.98h4.09c2.2,0,3.98,1.78,3.98,3.98v10.46h10.46
		c2.2,0,3.98,1.78,3.98,3.98V49.56z M128.04,68.16c-5.53,0-10.01-4.48-10.01-10.01c0-5.53,4.48-10.01,10.01-10.01
		c5.53,0,10.01,4.48,10.01,10.01C138.05,63.68,133.57,68.16,128.04,68.16z M128.04,40.63c-5.53,0-10.01-4.48-10.01-10.01
		s4.48-10.01,10.01-10.01c5.53,0,10.01,4.48,10.01,10.01S133.57,40.63,128.04,40.63z M153.52,54.4c-5.53,0-10.01-4.48-10.01-10.01
		s4.48-10.01,10.01-10.01c5.53,0,10.01,4.48,10.01,10.01S159.05,54.4,153.52,54.4z"/>
</g>
</svg>
