<?xml version="1.0" encoding="utf-8"?>
<!-- Generator: Adobe Illustrator 24.1.1, SVG Export Plug-In . SVG Version: 6.00 Build 0)  -->
<svg version="1.1" id="Layer_1" xmlns="http://www.w3.org/2000/svg" xmlns:xlink="http://www.w3.org/1999/xlink" x="0px" y="0px"
	 viewBox="0 0 177.55 193.48" style="enable-background:new 0 0 177.55 193.48;" xml:space="preserve">
<style type="text/css">
	.st0{fill:#FF827A;}
</style>
<g>
	<g>
		<path class="st0" d="M106.22,123.61V85.88c0-2.49,1.98-4.53,4.47-4.62c48.86-1.76,66.86-18.37,66.86-18.37
			c-34.04,7.67-65.41,7.7-79.5,7.19c-9.08-0.33-17.61-4.47-23.4-11.47C58.02,38.48,52.8,0,52.8,0
			c-7.43,33.91,3.04,56.46,13.33,69.54c9.88,12.55,15.25,28.06,15.25,44.04v15.03C19.59,149.51,0,193.48,0,193.48
			c39.9-39.52,92.04-49.72,103.04-51.49c1.5-0.24,2.98-0.56,4.43-1.02c48.46-15.44,57.95-57.83,57.95-57.83
			C142.35,117.95,106.22,123.61,106.22,123.61z"/>
	</g>
	<g>
		<path class="st0" d="M92.27,59.51c8.11,0,14.69-6.58,14.69-14.69c0-8.11-6.58-14.69-14.69-14.69c-8.11,0-14.69,6.58-14.69,14.69
			C77.57,52.93,84.15,59.51,92.27,59.51z"/>
	</g>
</g>
</svg>
