<?xml version="1.0" encoding="utf-8"?>
<!-- Generator: Adobe Illustrator 24.1.1, SVG Export Plug-In . SVG Version: 6.00 Build 0)  -->
<svg version="1.1" id="Layer_1" xmlns="http://www.w3.org/2000/svg" xmlns:xlink="http://www.w3.org/1999/xlink" x="0px" y="0px"
	 viewBox="0 0 205.33 131.16" style="enable-background:new 0 0 205.33 131.16;" xml:space="preserve">
<style type="text/css">
	.st0{fill:#FF827A;}
</style>
<g>
	<g>
		<path class="st0" d="M204.11,0.09c-13.21-1.96-15.79,27.18-15.79,27.18c0.39,6.09-2.55,8.05-2.55,8.05l-8.01,9.1
			c-0.38,0.43-0.74,0.87-1.1,1.32c-2.83,3.6-11.29,13.72-13.65,16.53c-0.57,0.68-1.23,1.26-2,1.7c-1.94,1.1-2.31-0.04-2.2-1.42
			c0.12-1.53,0.76-2.98,1.75-4.15c4.4-5.17,8.91-11.69,8.91-11.69c5.3-7.07,3.93-13.16,3.93-13.16c-7.66-8.44-18.07,7.46-18.07,7.46
			c-8.05,13.55-17.67,19.05-17.67,19.05c-5.11,2.75-11.59,8.82-11.59,8.82c-8.17,7.03-9.37,17.92-9.39,23.52
			c-0.01,1.61,0.14,3.21,0.36,4.8c1.8,12.75-3.73,33.94-3.73,33.94l37.7-0.79c-3.53-27.49,20.81-45.16,20.81-45.16
			c4.18-3.14,9.95-9.44,13.96-14.05c2.59-2.98,4.58-6.44,5.84-10.19c2.71-8.07,9.27-21.32,9.27-21.32c2.44-4.7,4.1-31.95,4.45-38.06
			C205.37,0.85,204.84,0.2,204.11,0.09z"/>
	</g>
	<g>
		<path class="st0" d="M88.3,97.21c0.22-1.59,0.37-3.19,0.36-4.8c-0.02-5.6-1.22-16.49-9.39-23.52c0,0-6.48-6.07-11.59-8.82
			c0,0-9.62-5.5-17.67-19.05c0,0-10.41-15.91-18.07-7.46c0,0-1.37,6.09,3.93,13.16c0,0,4.51,6.52,8.91,11.69
			c1,1.17,1.63,2.62,1.75,4.15c0.11,1.38-0.26,2.52-2.2,1.42c-0.77-0.43-1.44-1.02-2-1.7c-2.35-2.81-10.81-12.94-13.65-16.53
			c-0.35-0.45-0.72-0.89-1.1-1.32l-8.01-9.1c0,0-2.95-1.96-2.55-8.05c0,0-2.58-29.15-15.79-27.18C0.49,0.2-0.04,0.85,0,1.59
			C0.35,7.7,2.01,34.95,4.45,39.65c0,0,6.55,13.25,9.27,21.32c1.26,3.75,3.25,7.2,5.84,10.19c4.01,4.62,9.77,10.92,13.96,14.05
			c0,0,24.35,17.67,20.81,45.16l37.7,0.79C92.03,131.16,86.5,109.96,88.3,97.21z"/>
	</g>
</g>
</svg>
