<?xml version="1.0" encoding="utf-8"?>
<!-- Generator: Adobe Illustrator 24.1.1, SVG Export Plug-In . SVG Version: 6.00 Build 0)  -->
<svg version="1.1" id="Layer_1" xmlns="http://www.w3.org/2000/svg" xmlns:xlink="http://www.w3.org/1999/xlink" x="0px" y="0px"
	 viewBox="0 0 215.81 172.92" style="enable-background:new 0 0 215.81 172.92;" xml:space="preserve">
<style type="text/css">
	.st0{fill:#FF827A;}
</style>
<g>
	<g>
		<path class="st0" d="M214.23,84.21l-28.67-23.98V3.59c0-1.93-1.57-3.5-3.5-3.5h-26.86c-1.93,0-3.5,1.57-3.5,3.5v28.32L117.87,3.62
			c-5.77-4.83-14.17-4.83-19.94,0L1.59,84.21c-1.88,1.57-2.12,4.36-0.56,6.24L8.18,99c1.57,1.88,4.36,2.12,6.24,0.56l93.49-78.2
			l43.78,36.62l12.6,10.54l37.1,31.03c1.88,1.57,4.67,1.32,6.24-0.56l7.15-8.55C216.35,88.57,216.1,85.78,214.23,84.21z"/>
	</g>
	<g>
		<path class="st0" d="M30.25,99.35v66.56c0,3.87,3.14,7.01,7.01,7.01h53.26v-52.86h34.77v52.86h53.26c3.87,0,7.01-3.14,7.01-7.01
			V99.35l-77.65-64.95L30.25,99.35z"/>
	</g>
</g>
</svg>
