<svg width="30" height="30" viewBox="0 0 30 30" fill="none" xmlns="http://www.w3.org/2000/svg">
<g clip-path="url(#clip0_23_938)">
<path d="M18.75 8.125C18.06 8.125 17.5 7.565 17.5 6.875V5H12.5V6.875C12.5 7.565 11.94 8.125 11.25 8.125C10.56 8.125 10 7.565 10 6.875V5C10 3.62125 11.1212 2.5 12.5 2.5H17.5C18.8787 2.5 20 3.62125 20 5V6.875C20 7.565 19.44 8.125 18.75 8.125Z" fill="#6460F2"/>
<path d="M15.8875 19.2249C15.6625 19.3124 15.3375 19.3749 15 19.3749C14.6625 19.3749 14.3375 19.3124 14.0375 19.1999L0 14.5249V24.0624C0 25.9624 1.5375 27.4999 3.4375 27.4999H26.5625C28.4625 27.4999 30 25.9624 30 24.0624V14.5249L15.8875 19.2249Z" fill="#6460F2"/>
<path d="M30 9.6875V12.55L15.3 17.45C15.2 17.4875 15.1 17.5 15 17.5C14.9 17.5 14.8 17.4875 14.7 17.45L0 12.55V9.6875C0 7.7875 1.5375 6.25 3.4375 6.25H26.5625C28.4625 6.25 30 7.7875 30 9.6875Z" fill="#6460F2"/>
</g>
<defs>
<clipPath id="clip0_23_938">
<rect width="30" height="30" fill="white"/>
</clipPath>
</defs>
</svg>
