<svg width="30" height="30" viewBox="0 0 30 30" fill="none" xmlns="http://www.w3.org/2000/svg">
<g clip-path="url(#clip0_23_1041)">
<path d="M29.1501 20.9058L19.2981 3.83257C18.4103 2.29521 16.7701 1.3479 14.9945 1.3479C13.219 1.3479 11.5788 2.29521 10.691 3.83257L0.665825 21.1982C-0.221942 22.7355 -0.221942 24.6302 0.665825 26.1675C1.55359 27.7049 3.19379 28.6522 4.96933 28.6522H25.0198C25.0253 28.6522 25.0307 28.6522 25.0307 28.6522C27.7752 28.6522 30 26.4273 30 23.6828C30 22.6543 29.686 21.6962 29.1501 20.9058ZM17.122 22.5677C17.122 23.7423 16.218 24.6409 15 24.6409C13.782 24.6409 12.878 23.7423 12.878 22.5677V22.519C12.878 21.3497 13.782 20.4457 15 20.4457C16.218 20.4457 17.122 21.3443 17.122 22.519V22.5677ZM17.1707 8.59079L16.1205 17.7608C16.0502 18.4212 15.6117 18.8326 15 18.8326C14.3883 18.8326 13.9498 18.4158 13.8795 17.7608L12.8293 8.58537C12.7589 7.87624 13.1433 7.34033 13.8037 7.34033H16.1909C16.8513 7.34575 17.2411 7.88166 17.1707 8.59079Z" fill="#6460F2"/>
</g>
<defs>
<clipPath id="clip0_23_1041">
<rect width="30" height="30" fill="white"/>
</clipPath>
</defs>
</svg>
