<?xml version="1.0" encoding="utf-8"?>
<!-- Generator: Adobe Illustrator 24.1.1, SVG Export Plug-In . SVG Version: 6.00 Build 0)  -->
<svg version="1.1" id="Layer_1" xmlns="http://www.w3.org/2000/svg" xmlns:xlink="http://www.w3.org/1999/xlink" x="0px" y="0px"
	 viewBox="0 0 199.74 141.68" style="enable-background:new 0 0 199.74 141.68;" xml:space="preserve">
<style type="text/css">
	.st0{fill:#FF827A;}
</style>
<g>
	<g>
		<g>
			<path class="st0" d="M199.17,135.41L122.2,2.09c-1.61-2.79-5.63-2.79-7.24,0L98.01,31.44c-0.75,1.29-0.75,2.89,0,4.18
				l60.03,103.97c0.75,1.29,2.13,2.09,3.62,2.09h33.89C198.77,141.68,200.78,138.2,199.17,135.41z"/>
		</g>
		<g>
			<path class="st0" d="M92.92,52.81c-1.61-2.79-5.63-2.79-7.24,0L59.92,97.41c-1.61,2.79-5.63,2.79-7.24,0L41.21,77.55
				c-1.61-2.79-5.63-2.79-7.24,0l-33.4,57.85c-1.61,2.79,0.4,6.27,3.62,6.27h30.17h43.88h58.75c3.22,0,5.23-3.49,3.62-6.27
				L92.92,52.81z"/>
		</g>
	</g>
</g>
</svg>
