<?xml version="1.0" encoding="utf-8"?>
<!-- Generator: Adobe Illustrator 24.1.1, SVG Export Plug-In . SVG Version: 6.00 Build 0)  -->
<svg version="1.1" id="Layer_1" xmlns="http://www.w3.org/2000/svg" xmlns:xlink="http://www.w3.org/1999/xlink" x="0px" y="0px"
	 viewBox="0 0 109.86 194.8" style="enable-background:new 0 0 109.86 194.8;" xml:space="preserve">
<style type="text/css">
	.st0{fill:#FF827A;}
</style>
<g>
	<path class="st0" d="M90.12,0H19.73C8.83,0,0,8.83,0,19.73v155.33c0,10.9,8.83,19.73,19.73,19.73h70.39
		c10.9,0,19.73-8.83,19.73-19.73V19.73C109.86,8.83,101.02,0,90.12,0z M39.49,12.51h30.88v5.18H39.49V12.51z M55.13,188.95
		c-5.16,0-9.35-4.19-9.35-9.35c0-5.16,4.19-9.35,9.35-9.35c5.16,0,9.35,4.19,9.35,9.35C64.48,184.77,60.3,188.95,55.13,188.95z
		 M104.04,164.59H5.82V28.86h98.22V164.59z"/>
</g>
</svg>
