<?xml version="1.0" encoding="utf-8"?>
<!-- Generator: Adobe Illustrator 24.1.1, SVG Export Plug-In . SVG Version: 6.00 Build 0)  -->
<svg version="1.1" id="Layer_1" xmlns="http://www.w3.org/2000/svg" xmlns:xlink="http://www.w3.org/1999/xlink" x="0px" y="0px"
	 viewBox="0 0 221.78 221.78" style="enable-background:new 0 0 221.78 221.78;" xml:space="preserve">
<style type="text/css">
	.st0{fill:#FF827A;}
</style>
<g>
	<g>
		<path class="st0" d="M110.89,0C49.74,0,0,49.74,0,110.89s49.74,110.89,110.89,110.89s110.89-49.74,110.89-110.89
			S172.03,0,110.89,0z M110.89,199.34c-48.77,0-88.45-39.68-88.45-88.45c0-48.77,39.68-88.45,88.45-88.45s88.45,39.68,88.45,88.45
			C199.34,159.66,159.66,199.34,110.89,199.34z"/>
	</g>
	<g>
		<path class="st0" d="M110.89,44.88c-36.4,0-66.01,29.61-66.01,66.01c0,36.4,29.61,66.01,66.01,66.01s66.01-29.61,66.01-66.01
			C176.9,74.49,147.29,44.88,110.89,44.88z M110.89,158.2c-26.09,0-47.31-21.22-47.31-47.31c0-26.09,21.22-47.31,47.31-47.31
			s47.31,21.22,47.31,47.31C158.2,136.98,136.97,158.2,110.89,158.2z"/>
	</g>
	<g>
		<circle class="st0" cx="110.89" cy="110.89" r="23"/>
	</g>
</g>
</svg>
