<?xml version="1.0" encoding="utf-8"?>
<!-- Generator: Adobe Illustrator 24.1.1, SVG Export Plug-In . SVG Version: 6.00 Build 0)  -->
<svg version="1.1" id="Layer_1" xmlns="http://www.w3.org/2000/svg" xmlns:xlink="http://www.w3.org/1999/xlink" x="0px" y="0px"
	 viewBox="0 0 214.39 214.39" style="enable-background:new 0 0 214.39 214.39;" xml:space="preserve">
<style type="text/css">
	.st0{fill:#FF827A;}
</style>
<g>
	<path class="st0" d="M96.38,26.98C79.1,44.26,69.91,65.99,69.43,86.21c-0.12,5.24-0.45,10.48-1.26,15.66
		c-1.85,11.8-6.16,28.9-16.21,42.27l-0.78-0.78L4.11,190.43c-5.48,5.48-5.48,14.36,0,19.84l0,0c5.48,5.48,14.36,5.48,19.84,0
		l47.08-47.08l-0.78-0.78c13.37-10.05,30.46-14.36,42.27-16.21c5.18-0.81,10.42-1.13,15.66-1.26c20.22-0.48,41.95-9.67,59.23-26.95
		c31.16-31.16,36.04-76.79,10.9-101.93C173.18-9.06,127.54-4.18,96.38,26.98z M16.8,203.12c-1.53,1.53-4.01,1.53-5.54,0
		c-1.53-1.53-1.53-4.01,0-5.54l32.41-32.41l7.51-7.51l1.17,1.17l3.21,3.21l1.17,1.17l-7.51,7.51L16.8,203.12z M63.01,155.18
		l-3.81-3.81c8.72-11.07,13.72-24.29,16.59-35.79c2.49,4.86,5.71,9.35,9.69,13.32c3.97,3.97,8.46,7.2,13.32,9.68
		C87.3,141.46,74.08,146.47,63.01,155.18z M180.26,110.85c-15.85,15.85-35.83,24.1-53.93,24.04c-0.88,0-1.76-0.03-2.64-0.07
		c-11.91-0.58-22.86-4.85-31.06-13.06S80.15,102.6,79.57,90.69c-0.04-0.87-0.07-1.75-0.07-2.64c-0.06-18.1,8.19-38.08,24.04-53.93
		c27.16-27.16,66.47-32.06,87.63-10.9C212.31,44.38,207.42,83.69,180.26,110.85z"/>
</g>
</svg>
