<?xml version="1.0" encoding="utf-8"?>
<!-- Generator: Adobe Illustrator 24.1.1, SVG Export Plug-In . SVG Version: 6.00 Build 0)  -->
<svg version="1.1" id="Layer_1" xmlns="http://www.w3.org/2000/svg" xmlns:xlink="http://www.w3.org/1999/xlink" x="0px" y="0px"
	 viewBox="0 0 203.75 122.82" style="enable-background:new 0 0 203.75 122.82;" xml:space="preserve">
<style type="text/css">
	.st0{fill:#FF827A;}
</style>
<g>
	<path class="st0" d="M203.75,27.2c0,0-5.43-11.27-28.58-8.3c-2.1,0.27-4.16,0.78-6.14,1.52L94.1,48.47c0,0-4.65,1.99-9.75,0.44
		c0,0-10.08-6.33-29.5-9.26c-2.32-0.35-4.68-0.48-7.03-0.52c-1.66-0.03-3.84-0.49-4.12-2.71c2.69-3.75,4.27-8.3,4.27-13.2
		C47.98,10.41,37.22,0,23.99,0S0,10.41,0,23.22c0,12.8,10.76,23.22,23.99,23.22c2.24,0,4.41-0.31,6.48-0.87l0,0.01
		c0,0,31.08-3.08,40.16,9.54c0,0,9.3,9.08-8.86,16.84c0,0-10.95,6.76-29.93,5.2c-1.94-0.49-3.98-0.76-6.08-0.76
		c-13.23,0-23.99,10.41-23.99,23.22s10.76,23.22,23.99,23.22s23.99-10.41,23.99-23.22c0-5.14-1.74-9.9-4.68-13.75
		c2.69-1.96,7.73-4.46,16.7-5.71c0,0,23.04-5.76,28.13-9.3c0,0,62.25,24.81,86.61,30.13c0,0,17.94,4.87,27.25-8.64l-86.61-31.95
		L203.75,27.2z M7.44,23.22c0-8.7,7.42-15.77,16.55-15.77c9.12,0,16.55,7.07,16.55,15.77s-7.42,15.77-16.55,15.77
		C14.87,38.99,7.44,31.91,7.44,23.22z M25.75,115.38c-9.12,0-16.55-7.08-16.55-15.77s7.42-15.77,16.55-15.77S42.3,90.91,42.3,99.61
		S34.88,115.38,25.75,115.38z"/>
</g>
</svg>
