<?xml version="1.0" encoding="utf-8"?>
<!-- Generator: Adobe Illustrator 24.1.1, SVG Export Plug-In . SVG Version: 6.00 Build 0)  -->
<svg version="1.1" id="Layer_1" xmlns="http://www.w3.org/2000/svg" xmlns:xlink="http://www.w3.org/1999/xlink" x="0px" y="0px"
	 viewBox="0 0 135.74 201.74" style="enable-background:new 0 0 135.74 201.74;" xml:space="preserve">
<style type="text/css">
	.st0{fill:#FF827A;}
</style>
<g>
	<g>
		<path class="st0" d="M99.56,105.86L88.89,94.08c-1.53-1.68-3.44-2.97-5.57-3.76l-48.48-17.8c-0.55-0.21-1.07-0.51-1.49-0.93
			c-0.85-0.84-1.51-2.24,2-3.24c0.54-0.15,1.09-0.26,1.65-0.33c1.59-0.22,6.01-1.1,3.96-4.09c-0.3-0.45-0.59-0.9-0.84-1.38
			c-0.73-1.44-2.09-4.28-2.45-6.17c-0.09-0.44,0.24-0.86,0.69-0.9l0.72-0.07c0.25-0.02,0.5,0.08,0.66,0.27
			c1.37,1.65,7.92,9.28,11.64,8.9c0,0,12.5-0.4,18.79-1.98c1.66-0.42,2.9-1.81,3.11-3.51l1.09-8.73c0.23-1.86-0.78-3.65-2.5-4.41
			L33.73,29.18c-1.89-0.83-4.09-0.22-5.28,1.47L1.6,68.78c-2.1,2.99-2.13,6.97-0.07,9.98l39.21,57.33l-7.63,55.84
			c-0.16,1.16,0.4,2.3,1.42,2.88c6.18,3.49,29.41,13.85,68.45-0.33c1.14-0.41,1.9-1.49,1.9-2.7v-48.52c0,0,20.42-24.36,20.42-53.03
			l-21.18,16.05C102.71,107.34,100.74,107.16,99.56,105.86z"/>
	</g>
	<g>
		<path class="st0" d="M40.08,25.57l17.43,7.89c1.67,0.75,3.63,0.21,4.68-1.29L72.7,17.05c1.25-1.68,0.99-4.05-0.61-5.42L59.36,0.7
			c-1.27-1.09-3.19-0.89-4.2,0.44L39.2,22.08C38.3,23.25,38.73,24.96,40.08,25.57z"/>
	</g>
	<g>
		<path class="st0" d="M67.75,37.48l7.94,3.97c2.63,1.32,4.27,4.03,4.2,6.97l-0.19,8.71c-0.01,0.37,0.46,0.53,0.68,0.24l16.73-21.66
			c1.03-1.33,0.87-3.22-0.36-4.36L82.99,18.59c-1.73-1.6-4.48-1.27-5.78,0.7L67.02,34.77C66.4,35.71,66.75,36.98,67.75,37.48z"/>
	</g>
	<g>
		<path class="st0" d="M70.35,68.01c-12.64,3.62-20.75,2.53-24.08,1.73c-0.23-0.06-0.35,0.26-0.14,0.37
			c4.75,2.46,12.52,5.16,16.32,6.42c1.35,0.45,2.84,0.07,3.82-0.97l5.27-5.61C72.37,69.07,71.5,67.67,70.35,68.01z"/>
	</g>
	<g>
		<path class="st0" d="M73.77,79.12l12.37,7.42c1.17,0.7,2.67,0.47,3.57-0.55l27.57-31.11c0.98-1.11,0.94-2.78-0.08-3.84
			l-11.59-11.98c-1.19-1.23-3.18-1.13-4.24,0.21L73.01,74.94C71.95,76.28,72.3,78.25,73.77,79.12z"/>
	</g>
	<g>
		<path class="st0" d="M135.16,71.55l-10.02-11.96c-1.15-1.37-3.24-1.42-4.46-0.11L94.3,87.99c-1.32,1.43-1.24,3.66,0.18,4.99
			l6.21,5.81c1.23,1.15,3.11,1.22,4.42,0.17l29.69-23.86C135.9,74.22,136.06,72.62,135.16,71.55z"/>
	</g>
</g>
</svg>
