<?xml version="1.0" encoding="utf-8"?>
<!-- Generator: Adobe Illustrator 24.1.1, SVG Export Plug-In . SVG Version: 6.00 Build 0)  -->
<svg version="1.1" id="Layer_1" xmlns="http://www.w3.org/2000/svg" xmlns:xlink="http://www.w3.org/1999/xlink" x="0px" y="0px"
	 viewBox="0 0 179.45 160.98" style="enable-background:new 0 0 179.45 160.98;" xml:space="preserve">
<style type="text/css">
	.st0{fill:#FF827A;}
</style>
<g>
	<g>
		<path class="st0" d="M75.67,111.78H53.7V91.79c21.95-3.58,38.7-22.63,38.7-45.59C92.41,20.69,71.72,0,46.2,0S0,20.69,0,46.2
			c0,22.96,16.75,42,38.7,45.59v19.99H16.74c-4.14,0-7.5,3.36-7.5,7.5s3.36,7.5,7.5,7.5H38.7v26.26c0,4.14,3.36,7.5,7.5,7.5
			s7.5-3.36,7.5-7.5v-26.26h21.96c4.14,0,7.5-3.36,7.5-7.5S79.81,111.78,75.67,111.78z M46.2,75.41c-16.1,0-29.2-13.1-29.2-29.2
			C17,30.1,30.1,17,46.2,17s29.2,13.1,29.2,29.2C75.41,62.31,62.31,75.41,46.2,75.41z"/>
	</g>
	<g>
		<path class="st0" d="M140.75,69.18V26.23l13.85,13.85c2.93,2.93,7.68,2.93,10.61,0s2.93-7.68,0-10.61L143.86,8.12l-5.33-5.33
			c-2.91-2.91-7.63-2.91-10.55,0l-5.33,5.33l-21.35,21.35c-2.93,2.93-2.93,7.68,0,10.61s7.68,2.93,10.61,0l13.85-13.85v42.95
			c-21.95,3.58-38.7,22.63-38.7,45.59c0,25.52,20.69,46.2,46.2,46.2s46.2-20.69,46.2-46.2C179.45,91.81,162.7,72.77,140.75,69.18z
			 M133.25,143.98c-16.1,0-29.2-13.1-29.2-29.2c0-16.1,13.1-29.2,29.2-29.2c16.1,0,29.2,13.1,29.2,29.2
			C162.45,130.88,149.35,143.98,133.25,143.98z"/>
	</g>
</g>
</svg>
