<?xml version="1.0" encoding="utf-8"?>
<!-- Generator: Adobe Illustrator 24.1.1, SVG Export Plug-In . SVG Version: 6.00 Build 0)  -->
<svg version="1.1" id="Layer_1" xmlns="http://www.w3.org/2000/svg" xmlns:xlink="http://www.w3.org/1999/xlink" x="0px" y="0px"
	 viewBox="0 0 204.26 91.92" style="enable-background:new 0 0 204.26 91.92;" xml:space="preserve">
<style type="text/css">
	.st0{fill:#FF827A;}
</style>
<g>
	<g>
		<polygon class="st0" points="1.27,91.92 203.25,91.92 203.25,77.27 0.61,77.27 		"/>
	</g>
	<g>
		<path class="st0" d="M174.54,40.83c0,0-6.39-1.96-16.21-5.22v13.87c0,2.56-1.97,4.79-4.53,4.87c-2.65,0.08-4.82-2.04-4.82-4.67
			V32.46c-5.19-1.78-10.88-3.78-16.83-5.95l0,11.88c0,2.56-1.97,4.79-4.53,4.87c-2.65,0.08-4.82-2.04-4.82-4.67V23.04
			c-5.31-2.01-10.69-4.12-15.99-6.29v10.92c0,2.56-1.97,4.79-4.53,4.87c-2.65,0.08-4.82-2.04-4.82-4.67V12.8
			C87.93,8.65,79.07,4.36,71.99,0.18c-0.73-0.43-1.66-0.03-1.87,0.78c-3.64,14.15-17.6,24.69-34.29,24.69
			c-12.73,0-23.88-6.14-30.06-15.33l0,0c-2.98-3.74-3.51-0.46-3.58,0.14C1.08,21.51-1.05,47.27,0.61,69.79h202.64
			C203.25,69.79,212.57,49.9,174.54,40.83z"/>
	</g>
</g>
</svg>
