<?xml version="1.0" encoding="utf-8"?>
<!-- Generator: Adobe Illustrator 24.1.1, SVG Export Plug-In . SVG Version: 6.00 Build 0)  -->
<svg version="1.1" id="Layer_1" xmlns="http://www.w3.org/2000/svg" xmlns:xlink="http://www.w3.org/1999/xlink" x="0px" y="0px"
	 viewBox="0 0 157.35 233.85" style="enable-background:new 0 0 157.35 233.85;" xml:space="preserve">
<style type="text/css">
	.st0{fill:#FF827A;}
</style>
<g>
	<g>
		<path class="st0" d="M32.41,99.2c9.1-8.15,21.09-5.75,21.09-5.75C72.66,95.36,85.6,83.38,85.6,83.38
			c1.44,18.69-53.67,54.15-53.67,54.15l21.09,29.23h66.78c14.54-25.88,36.73-23.48,36.73-23.48c5.27-57.03-16.29-97.76-16.29-97.76
			c-12.94-25.88-32.59-21.56-32.59-21.56c-9.1,0.96-15.33-8.15-15.33-8.15C89.43,3.35,72.66,0,72.66,0
			c0,24.92-14.86,30.67-14.86,30.67L4.61,72.36c-13.42,11.02,6.71,23.8,6.71,23.8C19.95,107.01,32.41,99.2,32.41,99.2z"/>
	</g>
	<g>
		<path class="st0" d="M33.21,198.39h104.65c3.79,0,6.86-3.07,6.86-6.86v-12.64c0-3.79-3.07-6.86-6.86-6.86H33.21
			c-3.79,0-6.86,3.07-6.86,6.86v12.64C26.36,195.32,29.43,198.39,33.21,198.39z"/>
	</g>
	<g>
		<path class="st0" d="M19.65,209.17c0,3.84,3.11,6.95,6.95,6.95h117.88c3.84,0,6.95-3.11,6.95-6.95s-3.11-6.95-6.95-6.95H26.6
			C22.76,202.22,19.65,205.34,19.65,209.17z"/>
	</g>
	<g>
		<path class="st0" d="M149.75,219.96H21.32c-3.84,0-6.95,3.11-6.95,6.95v0c0,3.84,3.11,6.95,6.95,6.95h128.43
			c3.84,0,6.95-3.11,6.95-6.95v0C156.7,223.07,153.59,219.96,149.75,219.96z"/>
	</g>
</g>
</svg>
