<?xml version="1.0" encoding="utf-8"?>
<!-- Generator: Adobe Illustrator 24.1.1, SVG Export Plug-In . SVG Version: 6.00 Build 0)  -->
<svg version="1.1" id="Layer_1" xmlns="http://www.w3.org/2000/svg" xmlns:xlink="http://www.w3.org/1999/xlink" x="0px" y="0px"
	 viewBox="0 0 189.83 189.83" style="enable-background:new 0 0 189.83 189.83;" xml:space="preserve">
<style type="text/css">
	.st0{fill:#FF827A;}
</style>
<g>
	<g>
		
			<rect x="65.82" y="81.39" transform="matrix(0.7071 -0.7071 0.7071 0.7071 -39.3159 94.9169)" class="st0" width="58.2" height="27.05"/>
	</g>
	<g>
		<path class="st0" d="M34.36,90.65c-5.28-5.28-13.84-5.28-19.13,0c-5.28,5.28-5.28,13.84,0,19.13l6.44,6.44
			c-4.73-1.61-10.17-0.55-13.94,3.22c-5.28,5.28-5.28,13.84,0,19.13l43.53,43.53c5.28,5.28,13.84,5.28,19.13,0
			c3.77-3.77,4.83-9.21,3.22-13.94l6.44,6.44c5.28,5.28,13.84,5.28,19.13,0c5.28-5.28,5.28-13.84,0-19.13L34.36,90.65z"/>
	</g>
	<g>
		<path class="st0" d="M16.73,160.02c-3.83-3.83-10.03-3.83-13.86,0l0,0c-3.83,3.83-3.83,10.03,0,13.86l13.09,13.09
			c3.83,3.83,10.03,3.83,13.86,0h0c3.83-3.83,3.83-10.03,0-13.86L16.73,160.02z"/>
	</g>
	<g>
		<path class="st0" d="M138.56,7.74c-5.28-5.28-13.84-5.28-19.13,0c-3.77,3.77-4.83,9.21-3.22,13.94l-6.44-6.44
			c-5.28-5.28-13.84-5.28-19.13,0c-5.28,5.28-5.28,13.84,0,19.13l64.82,64.82c5.28,5.28,13.84,5.28,19.13,0
			c5.28-5.28,5.28-13.84,0-19.13l-6.44-6.44c4.73,1.61,10.17,0.55,13.94-3.22c5.28-5.28,5.28-13.84,0-19.13L138.56,7.74z"/>
	</g>
	<g>
		<path class="st0" d="M186.96,15.96L173.87,2.87c-3.83-3.83-10.03-3.83-13.86,0c-3.83,3.83-3.83,10.03,0,13.86l13.09,13.09
			c3.83,3.83,10.03,3.83,13.86,0C190.79,25.99,190.79,19.79,186.96,15.96z"/>
	</g>
</g>
</svg>
