<?xml version="1.0" encoding="utf-8"?>
<!-- Generator: Adobe Illustrator 24.1.1, SVG Export Plug-In . SVG Version: 6.00 Build 0)  -->
<svg version="1.1" id="Layer_1" xmlns="http://www.w3.org/2000/svg" xmlns:xlink="http://www.w3.org/1999/xlink" x="0px" y="0px"
	 viewBox="0 0 236.58 156.42" style="enable-background:new 0 0 236.58 156.42;" xml:space="preserve">
<style type="text/css">
	.st0{fill:#FF827A;}
</style>
<path class="st0" d="M127.16,41.82c-5.35,5.17-13.97,15.27-14.54,27.21c-14.41,2.72-22.45,15.62-23.7,17.77
	c-7.75,8.97-47.6,22.58-62.4,27.11l-0.39,0.15c-16.08,7.44-22.72,18.42-25.45,26.32c-1.29,3.73-0.71,7.72,1.58,10.94
	c2.28,3.2,5.99,5.11,9.91,5.11h212.24c3.93,0,7.63-1.91,9.91-5.11c2.3-3.22,2.87-7.21,1.58-10.94c-2.73-7.9-9.37-18.88-25.45-26.32
	l-0.39-0.15c-14.8-4.52-54.65-18.14-62.4-27.11c-1.11-1.9-7.61-12.33-19.2-16.53c0.08-7.17,7.33-14.76,9.7-17.05
	c4.16-4.02,7.26-8.6,9.2-13.61c4.18-10.8,1.94-19.08-0.68-24.13c-3.52-6.8-10.01-11.84-17.8-13.83C116.45-1.53,106.36-0.1,98.91,5.9
	c-11.63,9.37-11.16,26.11-11.13,26.81c0.15,4.32,3.61,7.63,7.94,7.62c0.08,0,0.16,0,0.23,0c4.35-0.14,7.79-3.8,7.66-8.14
	c0-0.1-0.14-9.66,5.26-13.98c3.35-2.68,8.76-3.09,16.08-1.22c3.43,0.88,6.22,2.98,7.67,5.78c1.62,3.13,1.61,6.87-0.03,11.12
	C131.49,36.74,129.66,39.41,127.16,41.82z M133.97,94.76l0.49,0.92l0.82,0.99c3.79,4.62,11.87,11.32,40.95,22.34
	c12.92,4.9,24.68,8.63,28.31,9.76c6.36,3.07,11.06,7.03,14.04,11.81H18.01c2.98-4.78,7.68-8.74,14.04-11.81
	c3.63-1.13,15.39-4.86,28.31-9.76c29.08-11.02,37.16-17.73,40.89-22.27l0.79-0.9l0.57-1.08c0.44-0.72,6.48-10.4,15.35-10.4l0.3,0
	l0.34,0C127.53,84.36,133.44,93.88,133.97,94.76z"/>
</svg>
