<?xml version="1.0" encoding="utf-8"?>
<!-- Generator: Adobe Illustrator 24.1.1, SVG Export Plug-In . SVG Version: 6.00 Build 0)  -->
<svg version="1.1" id="Layer_1" xmlns="http://www.w3.org/2000/svg" xmlns:xlink="http://www.w3.org/1999/xlink" x="0px" y="0px"
	 viewBox="0 0 198.52 118.63" style="enable-background:new 0 0 198.52 118.63;" xml:space="preserve">
<style type="text/css">
	.st0{fill:#FF827A;}
</style>
<g>
	<g>
		<path class="st0" d="M196.14,26.83L103,0.51c-2.42-0.68-4.99-0.69-7.41,0L2.38,26.83c-3.16,0.89-3.18,5.36-0.03,6.28l93.11,27.22
			c2.5,0.73,5.16,0.73,7.66,0l57.59-16.85v23.03c-3.22,1.76-5.4,5.17-5.4,9.09c0,3.91,2.17,7.31,5.36,9.07l-4.41,22.53
			c-1.16,5.92,3.37,11.42,9.4,11.42c6.03,0,10.56-5.5,9.4-11.42l-4.41-22.53c3.2-1.76,5.36-5.16,5.36-9.07
			c0-3.92-2.18-7.34-5.4-9.09V40.59l25.55-7.47C199.32,32.19,199.3,27.72,196.14,26.83z"/>
	</g>
	<g>
		<path class="st0" d="M95.71,70.65L48.02,56.71v8.47v25.05c0,3.39,1.54,6.59,4.17,8.73c10.23,8.33,27.29,13.3,46.61,13.3
			c20.26,0,38.03-5.5,48.05-14.55c2.34-2.11,3.64-5.13,3.64-8.28V66.29v-9.57l-47.62,13.93C100.54,71.33,98.05,71.33,95.71,70.65z"
			/>
	</g>
</g>
</svg>
