<?xml version="1.0" encoding="utf-8"?>
<!-- Generator: Adobe Illustrator 24.1.1, SVG Export Plug-In . SVG Version: 6.00 Build 0)  -->
<svg version="1.1" id="Layer_1" xmlns="http://www.w3.org/2000/svg" xmlns:xlink="http://www.w3.org/1999/xlink" x="0px" y="0px"
	 viewBox="0 0 182.24 146.58" style="enable-background:new 0 0 182.24 146.58;" xml:space="preserve">
<style type="text/css">
	.st0{fill:#FF827A;}
</style>
<g>
	<g>
		<path class="st0" d="M16.43,34.34c8.61-7.22,16.47-12.85,32.43-14.11c17.38-1.37,26.2,3.93,36.41,10.08
			c10.32,6.21,21.87,13.17,41.32,13.17c2.22,0,4.55-0.09,6.98-0.28c23.77-1.88,35.6-11.88,45.11-19.91
			c4.22-3.57,4.75-9.88,1.19-14.1C176.31,4.96,170,4.43,165.78,8c-8.81,7.44-16.42,13.87-33.78,15.25
			c-17.37,1.37-26.2-3.93-36.41-10.08C84.09,6.25,71.05-1.6,47.28,0.28C25.5,2.01,13.75,10.48,3.58,19.01
			c-4.23,3.55-4.79,9.86-1.24,14.09C5.89,37.34,12.2,37.89,16.43,34.34z"/>
	</g>
	<g>
		<path class="st0" d="M165.78,59.55c-8.81,7.44-16.42,13.87-33.78,15.25c-17.37,1.37-26.2-3.93-36.41-10.08
			c-11.5-6.92-24.53-14.77-48.31-12.88c-21.78,1.72-33.53,10.2-43.7,18.72c-4.23,3.55-4.79,9.86-1.24,14.09
			c3.55,4.23,9.86,4.79,14.09,1.24c8.61-7.22,16.47-12.85,32.43-14.11c17.38-1.37,26.2,3.93,36.41,10.08
			c10.32,6.21,21.87,13.17,41.32,13.17c2.22,0,4.55-0.09,6.98-0.28c23.77-1.88,35.6-11.88,45.11-19.91
			c4.22-3.57,4.75-9.88,1.19-14.1C176.31,56.52,170,55.99,165.78,59.55z"/>
	</g>
	<g>
		<path class="st0" d="M165.78,111.11c-8.81,7.44-16.42,13.87-33.78,15.25c-17.37,1.37-26.2-3.93-36.41-10.08
			c-11.5-6.92-24.53-14.77-48.31-12.88c-21.78,1.72-33.53,10.2-43.7,18.72c-4.23,3.55-4.79,9.86-1.24,14.09
			c3.55,4.23,9.86,4.79,14.09,1.24c8.61-7.22,16.47-12.85,32.43-14.11c17.38-1.37,26.2,3.93,36.41,10.08
			c10.32,6.21,21.87,13.17,41.32,13.17c2.22,0,4.55-0.09,6.98-0.28c23.77-1.88,35.6-11.88,45.11-19.91
			c4.22-3.57,4.75-9.88,1.19-14.1C176.31,108.07,170,107.54,165.78,111.11z"/>
	</g>
</g>
</svg>
