<?xml version="1.0" encoding="utf-8"?>
<!-- Generator: Adobe Illustrator 24.1.1, SVG Export Plug-In . SVG Version: 6.00 Build 0)  -->
<svg version="1.1" id="Layer_1" xmlns="http://www.w3.org/2000/svg" xmlns:xlink="http://www.w3.org/1999/xlink" x="0px" y="0px"
	 viewBox="0 0 217.32 193.78" style="enable-background:new 0 0 217.32 193.78;" xml:space="preserve">
<style type="text/css">
	.st0{fill:#FF827A;}
</style>
<g>
	<g>
		<path class="st0" d="M72.6,132.9c-22.07-20.6-40.71,15.21-40.71,15.21C25.02,175.08,0,185.87,0,185.87
			c57.75,23.61,74.57-12.2,78.15-22.74c0.59-1.73,1.23-3.45,1.95-5.13C87.42,140.98,72.6,132.9,72.6,132.9z"/>
	</g>
	<g>
		<path class="st0" d="M215.03,0.27C90.66,85.48,73.09,120.14,73.09,120.14c11.28,5.89,17.17,17.17,17.17,17.17
			c45.28-18.2,109.91-110.14,126.8-135.04C217.96,0.95,216.35-0.64,215.03,0.27z"/>
	</g>
</g>
</svg>
