<?xml version="1.0" encoding="utf-8"?>
<!-- Generator: Adobe Illustrator 24.1.1, SVG Export Plug-In . SVG Version: 6.00 Build 0)  -->
<svg version="1.1" id="Layer_1" xmlns="http://www.w3.org/2000/svg" xmlns:xlink="http://www.w3.org/1999/xlink" x="0px" y="0px"
	 viewBox="0 0 243.22 162.68" style="enable-background:new 0 0 243.22 162.68;" xml:space="preserve">
<style type="text/css">
	.st0{fill:#FF827A;}
</style>
<g>
	<path class="st0" d="M193.59,63.42c-4.81,0-9.45,0.7-13.85,1.98l-4.37-11.12l-3.56-9.05l-8.81-22.44l9.81-4.04
		c1.95,1.05,4.34,1.26,6.56,0.37l10.26-4.09c4-1.59,5.95-6.12,4.36-10.12c-1.59-4-6.12-5.95-10.12-4.36l-10.26,4.09
		c-2.61,1.04-4.33,3.32-4.79,5.9l-17.58,7.19l10.82,27.5h-4.47h-10.12H89.05h-3.62l-7.64-13.66h2.71c4.7,0,8.51-3.81,8.51-8.51
		c0-4.7-3.81-8.51-8.51-8.51H58.14c-4.7,0-8.51,3.81-8.51,8.51c0,4.7,3.81,8.51,8.51,8.51h9.27l9.7,17.33l-2.69,5.39l-6.34,12.71
		c-5.71-2.29-11.93-3.57-18.45-3.57C22.26,63.42,0,85.68,0,113.05s22.26,49.63,49.63,49.63c25.26,0,46.16-18.98,49.23-43.43h11.69
		h5.93h4.19l2.92-5.85l1.6-3.21l27.89-55.91h12.55l5.68,14.44c-16.2,8.18-27.34,24.97-27.34,44.32c0,27.36,22.26,49.63,49.63,49.63
		s49.63-22.26,49.63-49.63S220.96,63.42,193.59,63.42z M49.63,153.62c-22.37,0-40.57-18.2-40.57-40.57s18.2-40.57,40.57-40.57
		c5.07,0,9.92,0.94,14.39,2.65l-17.5,35.08l-4.52,9.05h10.12h37.61C86.74,138.69,69.89,153.62,49.63,153.62z M56.64,110.2
		l15.43-30.93c10.18,6.78,17.12,18.03,18.02,30.93H56.64z M99.17,110.2c-0.94-16.43-9.91-30.74-23.03-39.07l6.32-12.67l28.95,51.74
		H99.17z M118.23,103.85L90.5,54.29h52.46L118.23,103.85z M193.59,153.62c-22.37,0-40.57-18.2-40.57-40.57
		c0-15.53,8.77-29.04,21.61-35.86l14.76,37.53l8.41-3.35l-14.73-37.51c3.36-0.9,6.89-1.39,10.53-1.39
		c22.37,0,40.57,18.2,40.57,40.57S215.97,153.62,193.59,153.62z"/>
</g>
</svg>
