<?xml version="1.0" encoding="utf-8"?>
<!-- Generator: Adobe Illustrator 24.1.1, SVG Export Plug-In . SVG Version: 6.00 Build 0)  -->
<svg version="1.1" id="Layer_1" xmlns="http://www.w3.org/2000/svg" xmlns:xlink="http://www.w3.org/1999/xlink" x="0px" y="0px"
	 viewBox="0 0 183.36 167.67" style="enable-background:new 0 0 183.36 167.67;" xml:space="preserve">
<style type="text/css">
	.st0{fill:#FF827A;}
</style>
<g>
	<path class="st0" d="M181.25,32.2L122.2,0.82c-3.5-1.86-7.8-0.43-9.59,3.1c-3.87,7.63-11.78,12.86-20.92,12.86
		c-9.14,0-17.06-5.23-20.92-12.86c-1.79-3.54-6.09-4.96-9.59-3.1L2.11,32.2c-1.94,1.03-2.67,3.44-1.64,5.37l14.01,26.36
		c1.03,1.94,3.44,2.67,5.37,1.64l22.1-11.74v109.86c0,2.19,1.78,3.97,3.97,3.97h91.52c2.19,0,3.97-1.78,3.97-3.97V53.83l22.1,11.74
		c1.94,1.03,4.34,0.29,5.37-1.64l14.01-26.36C183.92,35.64,183.19,33.23,181.25,32.2z"/>
</g>
</svg>
