<?xml version="1.0" encoding="utf-8"?>
<!-- Generator: Adobe Illustrator 24.1.1, SVG Export Plug-In . SVG Version: 6.00 Build 0)  -->
<svg version="1.1" id="Layer_1" xmlns="http://www.w3.org/2000/svg" xmlns:xlink="http://www.w3.org/1999/xlink" x="0px" y="0px"
	 viewBox="0 0 166.15 162" style="enable-background:new 0 0 166.15 162;" xml:space="preserve">
<style type="text/css">
	.st0{fill:#FF827A;}
</style>
<g>
	<g>
		<path class="st0" d="M46.64,61.01C20.88,61.01,0,67.52,0,75.55c0,0.18,0.01,0.36,0.04,0.54c-0.01,0.01-0.01,0.03,0,0.04
			c0.03,0.24,0.08,0.48,0.15,0.72c0.03,0.12,0.07,0.24,0.11,0.35c0.01,0.03,0.02,0.07,0.04,0.1c0.02,0.06,0.04,0.12,0.07,0.17
			c0.14,0.34,0.32,0.68,0.54,1.01c0.09,0.13,0.18,0.26,0.28,0.39c0.13,0.18,0.28,0.36,0.44,0.54c0.13,0.16,0.28,0.31,0.43,0.46
			c0.04,0.04,0.08,0.08,0.12,0.11c0.16,0.17,0.33,0.33,0.51,0.48c0.2,0.17,0.4,0.34,0.62,0.51c0.2,0.16,0.41,0.31,0.63,0.46
			c0.25,0.18,0.52,0.36,0.8,0.53c0.27,0.18,0.56,0.35,0.85,0.52c0.23,0.13,0.47,0.26,0.71,0.39c0.29,0.15,0.59,0.31,0.89,0.46
			c0.3,0.15,0.61,0.29,0.93,0.44c0.01,0,0.01,0,0.01,0c0.17,0.08,0.35,0.16,0.54,0.24c0.84,0.37,1.73,0.72,2.66,1.05
			c0.26,0.1,0.53,0.19,0.8,0.28c1.49,0.51,3.09,0.99,4.8,1.43c0.58,0.15,1.17,0.29,1.76,0.43c0.49,0.11,0.99,0.23,1.5,0.34
			c0,0,0,0,0.01,0c0.72,0.15,1.46,0.3,2.21,0.44c0.65,0.12,1.3,0.24,1.96,0.35c0.66,0.12,1.33,0.22,2.01,0.32
			c0.48,0.08,0.96,0.15,1.45,0.21c0.47,0.07,0.95,0.13,1.43,0.19c1.17,0.15,2.36,0.28,3.57,0.4c1.43,0.13,2.89,0.25,4.37,0.34
			c0.76,0.05,1.52,0.1,2.3,0.13c2.31,0.11,4.68,0.17,7.1,0.17s4.79-0.06,7.1-0.17c0.78-0.03,1.54-0.08,2.3-0.13
			c1.48-0.09,2.94-0.21,4.37-0.34c1.21-0.12,2.4-0.25,3.57-0.4c0.48-0.06,0.96-0.12,1.43-0.19c0.49-0.06,0.97-0.13,1.45-0.21
			c0.68-0.1,1.35-0.2,2.01-0.32c0.66-0.11,1.31-0.23,1.96-0.35c0.75-0.14,1.49-0.29,2.21-0.44c0.01,0,0.01,0,0.01,0
			c0.51-0.11,1.01-0.23,1.5-0.34c0.59-0.14,1.18-0.28,1.76-0.43c1.71-0.44,3.31-0.92,4.8-1.43c0.27-0.09,0.54-0.18,0.8-0.28
			c0.93-0.33,1.82-0.68,2.66-1.05c0.19-0.08,0.37-0.16,0.54-0.24c0,0,0,0,0.01,0c0.32-0.15,0.63-0.29,0.93-0.44
			c0.3-0.15,0.6-0.31,0.89-0.46c0.24-0.13,0.48-0.26,0.71-0.39c0.3-0.17,0.58-0.34,0.85-0.52c0.28-0.17,0.55-0.35,0.8-0.53
			c0.22-0.15,0.43-0.3,0.63-0.46c0.22-0.17,0.42-0.34,0.62-0.51c0.18-0.15,0.35-0.31,0.51-0.48c0.04-0.03,0.08-0.07,0.12-0.11
			c0.15-0.15,0.3-0.3,0.43-0.46c0.16-0.18,0.31-0.36,0.44-0.54c0.1-0.13,0.19-0.26,0.28-0.39c0.22-0.33,0.4-0.67,0.54-1.01
			c0.03-0.05,0.05-0.11,0.07-0.17c0.02-0.03,0.03-0.07,0.04-0.1c0.04-0.11,0.08-0.23,0.11-0.35c0.07-0.24,0.12-0.48,0.15-0.72
			c0.01-0.01,0.01-0.03,0-0.04c0.03-0.18,0.04-0.36,0.04-0.54C93.28,67.52,72.4,61.01,46.64,61.01z"/>
	</g>
	<g>
		<path class="st0" d="M85.11,91.3c-11.5,4.34-27.19,5.79-38.47,5.79c-11.27,0-26.97-1.45-38.47-5.79
			c-2.83-1.08-5.41-2.32-7.61-3.76C0.37,87.41,0.19,87.28,0,87.16v0.75v11.61c0,3.06,3.02,5.89,8.17,8.22
			c3.25,1.48,7.34,2.75,12.06,3.77c7.51,1.61,16.6,2.55,26.41,2.55s18.9-0.94,26.41-2.55c4.72-1.02,8.81-2.29,12.06-3.77
			c5.15-2.33,8.17-5.16,8.17-8.22V87.91v-0.75c-0.19,0.12-0.37,0.25-0.56,0.38C90.52,88.98,87.94,90.22,85.11,91.3z"/>
	</g>
	<g>
		<path class="st0" d="M85.1,115.26c-11.49,4.35-27.18,5.8-38.46,5.8c-11.27,0-26.96-1.45-38.46-5.8c-2.83-1.07-5.41-2.31-7.61-3.76
			c-0.19-0.12-0.38-0.25-0.57-0.38v0.76v11.61c0,3.05,3.01,5.88,8.16,8.22h0.01c3.25,1.48,7.34,2.75,12.06,3.77h0.01
			c7.5,1.61,16.6,2.55,26.4,2.55s18.9-0.94,26.4-2.55h0.01c4.72-1.02,8.81-2.29,12.06-3.77h0.01c5.15-2.34,8.16-5.17,8.16-8.22
			v-11.61v-0.76c-0.19,0.13-0.38,0.26-0.57,0.38C90.51,112.95,87.93,114.19,85.1,115.26z"/>
	</g>
	<g>
		<path class="st0" d="M85.11,139.24c-11.5,4.34-27.19,5.79-38.47,5.79c-11.27,0-26.97-1.45-38.47-5.79
			c-2.83-1.08-5.41-2.32-7.61-3.76c-0.19-0.13-0.37-0.26-0.56-0.38v0.75v11.61c0,3.06,3.02,5.89,8.17,8.22
			c3.25,1.48,7.34,2.75,12.06,3.77c7.51,1.61,16.6,2.55,26.41,2.55s18.9-0.94,26.41-2.55c4.72-1.02,8.81-2.29,12.06-3.77
			c5.15-2.33,8.17-5.16,8.17-8.22v-11.61v-0.75c-0.19,0.12-0.37,0.25-0.56,0.38C90.52,136.92,87.94,138.16,85.11,139.24z"/>
	</g>
	<g>
		<path class="st0" d="M72.91,15.12c0.03,0.24,0.08,0.48,0.15,0.72c0.03,0.12,0.07,0.24,0.11,0.35c0.01,0.03,0.02,0.07,0.04,0.1
			c0.02,0.06,0.04,0.12,0.07,0.17c0.14,0.34,0.32,0.68,0.54,1.01c0.09,0.13,0.18,0.26,0.28,0.39c0.13,0.18,0.28,0.36,0.44,0.54
			c0.13,0.16,0.28,0.31,0.43,0.46c0.04,0.04,0.08,0.08,0.12,0.11c0.16,0.17,0.33,0.33,0.51,0.48c0.2,0.17,0.4,0.34,0.62,0.51
			c0.2,0.16,0.41,0.31,0.63,0.46c0.25,0.18,0.52,0.36,0.8,0.53c0.27,0.18,0.56,0.35,0.85,0.52c0.23,0.13,0.47,0.26,0.71,0.39
			c0.29,0.15,0.59,0.31,0.89,0.46c0.3,0.15,0.61,0.29,0.93,0.44c0.01,0,0.01,0,0.01,0c0.17,0.08,0.35,0.16,0.54,0.24
			c0.84,0.37,1.73,0.72,2.66,1.05c0.26,0.1,0.53,0.19,0.8,0.28c1.49,0.51,3.09,0.99,4.8,1.43c0.58,0.15,1.17,0.29,1.76,0.43
			c0.49,0.11,0.99,0.23,1.5,0.34c0,0,0,0,0.01,0c0.72,0.15,1.46,0.3,2.21,0.44c0.65,0.12,1.3,0.24,1.96,0.35
			c0.66,0.12,1.33,0.22,2.01,0.32c0.48,0.08,0.96,0.15,1.45,0.21c0.47,0.07,0.95,0.13,1.43,0.19c1.17,0.15,2.36,0.28,3.57,0.4
			c1.43,0.13,2.89,0.25,4.37,0.34c0.76,0.05,1.52,0.1,2.3,0.13c2.31,0.11,4.68,0.17,7.1,0.17s4.79-0.06,7.1-0.17
			c0.78-0.03,1.54-0.08,2.3-0.13c1.48-0.09,2.94-0.21,4.37-0.34c1.21-0.12,2.4-0.25,3.57-0.4c0.48-0.06,0.96-0.12,1.43-0.19
			c0.49-0.06,0.97-0.13,1.45-0.21c0.68-0.1,1.35-0.2,2.01-0.32c0.66-0.11,1.31-0.23,1.96-0.35c0.75-0.14,1.49-0.29,2.21-0.44
			c0.01,0,0.01,0,0.01,0c0.51-0.11,1.01-0.23,1.5-0.34c0.59-0.14,1.18-0.28,1.76-0.43c1.71-0.44,3.31-0.92,4.8-1.43
			c0.27-0.09,0.54-0.18,0.8-0.28c0.93-0.33,1.82-0.68,2.66-1.05c0.19-0.08,0.37-0.16,0.54-0.24c0,0,0,0,0.01,0
			c0.32-0.15,0.63-0.29,0.93-0.44c0.3-0.15,0.6-0.31,0.89-0.46c0.24-0.13,0.48-0.26,0.71-0.39c0.3-0.17,0.58-0.34,0.85-0.52
			c0.28-0.17,0.55-0.35,0.8-0.53c0.22-0.15,0.43-0.3,0.63-0.46c0.22-0.17,0.42-0.34,0.62-0.51c0.18-0.15,0.35-0.31,0.51-0.48
			c0.04-0.03,0.08-0.07,0.12-0.11c0.15-0.15,0.3-0.3,0.43-0.46c0.16-0.18,0.31-0.36,0.44-0.54c0.1-0.13,0.19-0.26,0.28-0.39
			c0.22-0.33,0.4-0.67,0.54-1.01c0.03-0.05,0.05-0.11,0.07-0.17c0.02-0.03,0.03-0.07,0.04-0.1c0.04-0.11,0.08-0.23,0.11-0.35
			c0.07-0.24,0.12-0.48,0.15-0.72c0.01-0.01,0.01-0.03,0-0.04c0.03-0.18,0.04-0.36,0.04-0.54C166.15,6.51,145.27,0,119.51,0
			S72.87,6.51,72.87,14.54c0,0.18,0.01,0.36,0.04,0.54C72.9,15.09,72.9,15.11,72.91,15.12z"/>
	</g>
	<g>
		<path class="st0" d="M157.98,30.29c-11.5,4.34-27.19,5.79-38.47,5.79c-11.27,0-26.97-1.45-38.47-5.79
			c-2.83-1.08-5.41-2.32-7.61-3.76c-0.19-0.13-0.37-0.26-0.56-0.38v0.75v11.61c0,3.06,3.02,5.89,8.17,8.22
			c3.25,1.48,7.34,2.75,12.06,3.77c7.51,1.61,16.6,2.55,26.41,2.55s18.9-0.94,26.41-2.55c4.72-1.02,8.81-2.29,12.06-3.77
			c5.15-2.33,8.17-5.16,8.17-8.22V26.9v-0.75c-0.19,0.12-0.37,0.25-0.56,0.38C163.39,27.97,160.81,29.21,157.98,30.29z"/>
	</g>
	<g>
		<path class="st0" d="M157.97,54.25c-11.49,4.35-27.18,5.8-38.46,5.8c-11.27,0-26.96-1.45-38.46-5.8
			c-2.83-1.07-5.41-2.31-7.61-3.76c-0.19-0.12-0.38-0.25-0.57-0.38v6.33c13.3,2.61,25.2,7.64,27.14,16.51l0.3,0.31l-0.03,1.4v1.08
			c5.86,0.82,12.37,1.28,19.23,1.28c9.8,0,18.9-0.94,26.4-2.55h0.01c4.72-1.02,8.81-2.29,12.06-3.77h0.01
			c5.15-2.34,8.16-5.17,8.16-8.22V50.11c-0.19,0.13-0.38,0.26-0.57,0.38C163.38,51.94,160.8,53.18,157.97,54.25z"/>
	</g>
	<g>
		<path class="st0" d="M157.98,78.23c-11.5,4.34-27.19,5.79-38.47,5.79c-5.66,0-12.43-0.37-19.23-1.28V99.7
			c5.86,0.83,12.37,1.29,19.23,1.29c9.81,0,18.9-0.94,26.41-2.55c4.72-1.02,8.81-2.29,12.06-3.77c5.15-2.33,8.17-5.16,8.17-8.22
			V74.09c-0.19,0.12-0.37,0.25-0.56,0.38C163.39,75.91,160.81,77.15,157.98,78.23z"/>
	</g>
	<g>
		<path class="st0" d="M157.97,102.19c-11.49,4.35-27.18,5.8-38.46,5.8c-5.66,0-12.43-0.37-19.23-1.28v16.95
			c5.86,0.84,12.37,1.3,19.23,1.3c25.76,0,46.64-6.51,46.64-14.54V98.05c-0.19,0.13-0.38,0.26-0.57,0.38
			C163.38,99.88,160.8,101.12,157.97,102.19z"/>
	</g>
</g>
</svg>
