<?xml version="1.0" encoding="utf-8"?>
<!-- Generator: Adobe Illustrator 24.1.1, SVG Export Plug-In . SVG Version: 6.00 Build 0)  -->
<svg version="1.1" id="Layer_1" xmlns="http://www.w3.org/2000/svg" xmlns:xlink="http://www.w3.org/1999/xlink" x="0px" y="0px"
	 viewBox="0 0 186.31 159.85" style="enable-background:new 0 0 186.31 159.85;" xml:space="preserve">
<style type="text/css">
	.st0{fill:#FF827A;}
</style>
<g>
	<g>
		<path class="st0" d="M172.68,0H13.62C6.1,0,0,6.1,0,13.62v95.69c0,7.52,6.1,13.62,13.62,13.62h159.06
			c7.52,0,13.62-6.1,13.62-13.62V13.62C186.31,6.1,180.21,0,172.68,0z M93.15,117.47c-3.16,0-5.72-2.56-5.72-5.72
			c0-3.16,2.56-5.72,5.72-5.72c3.16,0,5.72,2.56,5.72,5.72C98.87,114.91,96.31,117.47,93.15,117.47z M176.31,99.49H10V19.33
			c0-5.15,4.18-9.33,9.33-9.33h147.65c5.15,0,9.33,4.18,9.33,9.33V99.49z"/>
	</g>
	<g>
		<path class="st0" d="M147.34,149.69h-31.39v-23.48H70.35v23.48H38.96c-3.12,0-5.65,2.27-5.65,5.08v0c0,2.81,2.53,5.08,5.65,5.08
			h108.38c3.12,0,5.65-2.27,5.65-5.08v0C152.99,151.97,150.46,149.69,147.34,149.69z"/>
	</g>
</g>
</svg>
