<?xml version="1.0" encoding="utf-8"?>
<!-- Generator: Adobe Illustrator 24.1.1, SVG Export Plug-In . SVG Version: 6.00 Build 0)  -->
<svg version="1.1" id="Layer_1" xmlns="http://www.w3.org/2000/svg" xmlns:xlink="http://www.w3.org/1999/xlink" x="0px" y="0px"
	 viewBox="0 0 78.22 230.86" style="enable-background:new 0 0 78.22 230.86;" xml:space="preserve">
<style type="text/css">
	.st0{fill:#FF827A;}
</style>
<g>
	<path class="st0" d="M70.92,134.63V67.86h-7.42V6.84c0-1.22-0.51-2.38-1.37-3.24c-0.44-0.44-0.93-1.01-1.39-1.71
		c-0.89-1.35-2.48-2.06-4.09-1.84c-2.76,0.38-7.62,1.75-15.58,6c-0.22,0.12-0.44,0.22-0.67,0.31c-2.61,1-20.48,8.32-25.7,23.57
		v37.95H7.3v66.77c-4.19,1.05-7.3,4.84-7.3,9.35v77.22c0,5.33,4.32,9.66,9.66,9.66h58.91c5.33,0,9.66-4.32,9.66-9.66v-77.22
		C78.22,139.47,75.11,135.69,70.92,134.63z M63.51,75.28v59.06H14.71V75.28H63.51z"/>
</g>
</svg>
