<?xml version="1.0" encoding="utf-8"?>
<!-- Generator: Adobe Illustrator 24.1.1, SVG Export Plug-In . SVG Version: 6.00 Build 0)  -->
<svg version="1.1" id="Layer_1" xmlns="http://www.w3.org/2000/svg" xmlns:xlink="http://www.w3.org/1999/xlink" x="0px" y="0px"
	 viewBox="0 0 164.74 177.4" style="enable-background:new 0 0 164.74 177.4;" xml:space="preserve">
<style type="text/css">
	.st0{fill:#FF827A;}
</style>
<g>
	<g>
		<path class="st0" d="M164.64,50.44c-0.08-3.28-3.72-5.19-6.47-3.39c-10.7,6.98-23.36,11.87-37.16,13.98
			c-1.17,6.24-2.64,12.46-4.48,18.53c-4.6,15.16-11.04,27.65-19.14,37.12c-9.73,11.37-21.9,18.52-36.19,21.25
			c17.61,38.22,44.91,39.47,44.91,39.47C161.25,167.23,165.58,87,164.64,50.44z M82.2,152.27c0-13.21,10.71-23.91,23.91-23.91
			s23.91,10.71,23.91,23.91H82.2z M119.02,96.43c0-7.03,5.7-12.72,12.72-12.72c7.03,0,12.72,5.7,12.72,12.72H119.02z"/>
	</g>
	<g>
		<path class="st0" d="M118.04,4.13c-0.08-3.28-3.72-5.19-6.47-3.39c-14.56,9.5-32.75,15.14-52.49,15.14
			c-19.77,0-38-5.66-52.56-15.19C3.73-1.12,0.05,0.83,0.02,4.15C-1.26,128.3,59.49,131.09,59.49,131.09
			C114.64,120.93,118.98,40.7,118.04,4.13z M84.26,37.4c7.03,0,12.72,5.7,12.72,12.72H71.54C71.54,43.1,77.23,37.4,84.26,37.4z
			 M21.16,50.12c0-7.03,5.7-12.72,12.72-12.72c7.03,0,12.72,5.7,12.72,12.72H21.16z M59.07,106.67c-13.21,0-23.91-10.71-23.91-23.91
			h47.83C82.98,95.96,72.28,106.67,59.07,106.67z"/>
	</g>
</g>
</svg>
