<?xml version="1.0" encoding="utf-8"?>
<!-- Generator: Adobe Illustrator 24.1.1, SVG Export Plug-In . SVG Version: 6.00 Build 0)  -->
<svg version="1.1" id="Layer_1" xmlns="http://www.w3.org/2000/svg" xmlns:xlink="http://www.w3.org/1999/xlink" x="0px" y="0px"
	 viewBox="0 0 202.57 202.57" style="enable-background:new 0 0 202.57 202.57;" xml:space="preserve">
<style type="text/css">
	.st0{fill:#FF827A;}
</style>
<g>
	<path class="st0" d="M101.29,0C45.35,0,0,45.35,0,101.29s45.35,101.29,101.29,101.29c55.94,0,101.29-45.35,101.29-101.29
		S157.22,0,101.29,0z M83.26,171.73c0,2.31-2.24,3.94-4.45,3.27c-22.15-6.77-40.1-23.26-48.82-44.49
		c-2.12-5.17,1.65-10.84,7.23-10.84h4.4c23,0,41.64,18.65,41.64,41.64V171.73z M100.97,124.35c-12.24,0-22.21-9.96-22.21-22.21
		c0-12.24,9.96-22.21,22.21-22.21s22.21,9.96,22.21,22.21C123.18,114.38,113.22,124.35,100.97,124.35z M172.59,130.5
		c-8.73,21.23-26.67,37.72-48.83,44.49c-2.21,0.68-4.45-0.95-4.45-3.27v-10.42c0-23,18.64-41.64,41.64-41.64h4.4
		C170.94,119.66,174.71,125.34,172.59,130.5z M170.96,87.7c-2.99,0-5.94-0.68-8.63-1.99L133.16,71.5
		c-20.23-10.37-44.23-10.3-64.4,0.17L40.41,85.66c-2.71,1.34-5.7,2.04-8.73,2.04c-3.27,0-5.7-3.09-4.86-6.26
		c8.78-32.91,38.82-57.23,74.46-57.23c35.66,0,65.73,24.36,74.48,57.31C176.59,84.64,174.2,87.7,170.96,87.7z"/>
</g>
</svg>
