<?xml version="1.0" encoding="utf-8"?>
<!-- Generator: Adobe Illustrator 24.1.1, SVG Export Plug-In . SVG Version: 6.00 Build 0)  -->
<svg version="1.1" id="Layer_1" xmlns="http://www.w3.org/2000/svg" xmlns:xlink="http://www.w3.org/1999/xlink" x="0px" y="0px"
	 viewBox="0 0 245.55 199.3" style="enable-background:new 0 0 245.55 199.3;" xml:space="preserve">
<style type="text/css">
	.st0{fill:#FF827A;}
</style>
<g>
	<g>
		<path class="st0" d="M236.55,83.6H202.5c-0.72,0-1.38-0.4-1.71-1.04l-17.92-34.38c-4.49-8.62-12.95-14.32-22.62-15.25l-28.16-2.7
			c-5.46-0.52-10.86,1.03-15.24,4.4L87.79,57.21c-3.79,2.94-4.87,8.37-2.18,12.33c2.95,4.35,8.9,5.24,12.98,2.07l29.27-22.74
			c0.71-0.55,1.6-0.8,2.5-0.72l12.87,1.24c4.46,0.43,6.82,5.49,4.28,9.18l-26.97,39.14l-24.29,35.04l0,0l-0.38,0.55
			c-0.7,0.83-2.47,2.3-6.24,2.02l-43.95-3.3c-3.7-0.28-7.19,1.64-8.89,4.71c-0.03,0.05-0.05,0.1-0.08,0.14
			c-0.06,0.12-0.13,0.23-0.19,0.35c-0.37,0.74-0.63,1.55-0.75,2.41c-0.04,0.32-0.06,0.63-0.07,0.94c-0.21,4.84,3.45,9,8.31,9.37
			l38.32,2.87l9.23,0.69c7.18,0.54,14.11-2.77,18.22-8.68l5.27-7.6l10.46-15.1l35.09,25.88c1.33,0.98,1.74,2.82,0.93,4.27
			l-18.46,33.39c-2.32,4.2-1.18,9.61,2.86,12.19c4.42,2.83,10.24,1.31,12.75-3.22l18.61-33.66c5.16-9.33,2.58-21.14-6-27.46
			l-24.58-18.13l24.91-38.74c1.43-2.22,4.71-2.07,5.93,0.27l7.28,13.96c3.43,6.59,10.24,10.71,17.67,10.71h33.75
			c4.79,0,8.98-3.62,9.29-8.4C245.87,87.96,241.72,83.6,236.55,83.6z"/>
	</g>
	<g>
		<circle class="st0" cx="199.82" cy="22.38" r="22.38"/>
	</g>
	<g>
		<path class="st0" d="M70.97,56.12c0-2.76-2.24-5-5-5H5c-2.76,0-5,2.24-5,5s2.24,5,5,5h60.97C68.73,61.12,70.97,58.89,70.97,56.12z
			"/>
	</g>
	<g>
		<path class="st0" d="M40.48,36.8h32.35c2.76,0,5-2.24,5-5s-2.24-5-5-5H40.48c-2.76,0-5,2.24-5,5S37.72,36.8,40.48,36.8z"/>
	</g>
	<g>
		<path class="st0" d="M56.88,80.45c0-2.76-2.24-5-5-5H19.53c-2.76,0-5,2.24-5,5c0,2.76,2.24,5,5,5h32.35
			C54.64,85.45,56.88,83.21,56.88,80.45z"/>
	</g>
</g>
</svg>
