<?xml version="1.0" encoding="utf-8"?>
<!-- Generator: Adobe Illustrator 24.1.1, SVG Export Plug-In . SVG Version: 6.00 Build 0)  -->
<svg version="1.1" id="Layer_1" xmlns="http://www.w3.org/2000/svg" xmlns:xlink="http://www.w3.org/1999/xlink" x="0px" y="0px"
	 viewBox="0 0 161.41 176.15" style="enable-background:new 0 0 161.41 176.15;" xml:space="preserve">
<style type="text/css">
	.st0{fill:#FF827A;}
</style>
<g>
	<path class="st0" d="M146.62,88.08c14.45-9.56,19.13-28.83,10.36-44.04c-8.78-15.2-27.82-20.78-43.32-13.05
		C112.61,13.7,98.26,0,80.71,0S48.8,13.7,47.75,30.99c-15.5-7.73-34.54-2.15-43.32,13.05c-8.78,15.2-4.09,34.48,10.36,44.04
		C0.34,97.63-4.35,116.91,4.43,132.11c8.78,15.2,27.82,20.78,43.32,13.05c1.05,17.29,15.4,30.99,32.96,30.99
		c17.56,0,31.9-13.7,32.96-30.99c15.5,7.73,34.54,2.15,43.32-13.05C165.76,116.91,161.07,97.63,146.62,88.08z M82.65,123.05
		c-17.88,0-32.38-15.37-32.38-34.32c0-18.96,14.5-34.32,32.38-34.32c17.88,0,32.38,15.37,32.38,34.32
		C115.03,107.68,100.53,123.05,82.65,123.05z"/>
</g>
</svg>
