<?xml version="1.0" encoding="utf-8"?>
<!-- Generator: Adobe Illustrator 24.1.1, SVG Export Plug-In . SVG Version: 6.00 Build 0)  -->
<svg version="1.1" id="Layer_1" xmlns="http://www.w3.org/2000/svg" xmlns:xlink="http://www.w3.org/1999/xlink" x="0px" y="0px"
	 viewBox="0 0 206.08 178.13" style="enable-background:new 0 0 206.08 178.13;" xml:space="preserve">
<style type="text/css">
	.st0{fill:#FF827A;}
</style>
<g>
	<g>
		<path class="st0" d="M168.89,25.91c-6.85,0-13.26,1.86-18.77,5.09C142.27,12.76,124.15,0,103.04,0S63.81,12.76,55.96,30.99
			c-5.51-3.23-11.92-5.09-18.77-5.09C16.65,25.91,0,42.56,0,63.1c0,20.54,16.65,37.19,37.19,37.19c0.6,0,1.2-0.02,1.8-0.05v40.46
			h128.1v-40.46c0.6,0.03,1.2,0.05,1.8,0.05c20.54,0,37.19-16.65,37.19-37.19C206.08,42.56,189.43,25.91,168.89,25.91z"/>
	</g>
	<g>
		<path class="st0" d="M38.99,170.5c0,4.21,3.42,7.63,7.63,7.63h112.84c4.21,0,7.63-3.42,7.63-7.63v-15.4H38.99V170.5z"/>
	</g>
</g>
</svg>
