<?xml version="1.0" encoding="utf-8"?>
<!-- Generator: Adobe Illustrator 24.1.1, SVG Export Plug-In . SVG Version: 6.00 Build 0)  -->
<svg version="1.1" id="Layer_1" xmlns="http://www.w3.org/2000/svg" xmlns:xlink="http://www.w3.org/1999/xlink" x="0px" y="0px"
	 viewBox="0 0 223.3 197.74" style="enable-background:new 0 0 223.3 197.74;" xml:space="preserve">
<style type="text/css">
	.st0{fill:#FF827A;}
</style>
<g>
	<path class="st0" d="M211.81,121.91c-0.58-7.64-2.22-15.18-5.08-22.29c-0.04-0.11-0.09-0.21-0.13-0.32
		c-2.81-6.93-8.25-12.48-15.14-15.36c-3.23-1.35-6.32-2.34-8.45-2.96c-1.83-0.53-3.49-1.48-4.91-2.74
		c-13.42-11.96-34.86-11.18-34.86-11.18c-10.58,1.43-18.59,2.29-18.59,2.29c-20.02,0-36.03-10.29-36.03-10.29
		c-7.72-3.72-9.44-10.87-9.44-10.87c-2.55-4.88-7.93-14.17-10.53-18.64c-1.39-2.39-3.1-4.59-5.12-6.47
		c-4.6-4.29-10.44-7.73-15.32-10.17c-5.47-2.74-11.48-4.21-17.6-4.3l-9.15-0.15c-0.57-0.01-1.1-0.28-1.45-0.73l-5.89-7.69
		C14.07-0.03,13.96,0,13.95,0.08l-1.01,7.86c-0.04,0.28-0.4,0.37-0.56,0.14l-5.32-7.5C6.99,0.49,6.86,0.56,6.9,0.66
		c1.97,4.85,2.01,11.9,1.88,15.42c-0.05,1.31-0.3,2.6-0.74,3.84C4.03,31.38,0.83,50.47,0.83,50.47
		c-3.72,15.44,6.29,14.58,6.29,14.58c11.44,3.15,11.44-9.72,11.44-9.72c2.04-0.68,7.67-6.75,9.92-9.24
		c0.27-0.29,0.74-0.06,0.68,0.33c-1.64,10.94,5.98,24.35,5.98,24.35c3.72,9.44-4.86,19.73-4.86,19.73
		c-2.83,7.32,1.74,15.03,3.42,17.49c0.47,0.68,0.79,1.47,0.82,2.3c0.31,7.18-12.25,9.94-12.25,9.94c-8.86,2.29-14.3,7.43-14.3,7.43
		c-4,9.44,7.72,24.59,7.72,24.59c2.29,8.58,16.59,13.15,16.59,13.15c4.58,5.15,6.58,1.14,6.58,1.14c2.16-6.25-3.01-11.04-5.67-13.02
		c-0.67-0.5-1.64-0.11-1.78,0.71c-0.14,0.75-0.92,1.18-1.62,0.9l-1.5-0.6c-6.29-2.29-7.15-8.01-7.15-8.01
		c-2.28-1.63-2.8-5.86-2.82-9.2c-0.02-2.58,1.87-4.79,4.42-5.19l2.98-0.48c4.67,0.78,11.99-2.95,16.19-5.4
		c1.65-0.96,3.74-0.48,4.84,1.08c0.66,0.94,1.43,1.85,2.14,2.62c1.37,1.49,2.04,3.5,1.83,5.52c-1.01,9.63,1.32,17.07,1.32,17.07
		l-0.57,18.87c0,9.15-2.86,8.58-2.86,8.58l-6.43,6.21c-1.74,1.68-1.18,4.6,1.06,5.49c3.75,1.5,9.66,1.74,9.66,1.74
		c2.39,0.17,3.86-1.7,4.66-3.23c0.52-1,0.69-2.13,0.55-3.25c-0.4-3.35,0.37-6.21,1.16-8.12c0.94-2.28,1.4-4.73,1.46-7.19l0.74-29.97
		c1.77-5.75,3.02-14.39,3.5-18.03c0.11-0.86,1-1.41,1.82-1.11c27.42,9.96,46.14,5.84,53.88,3.11c2.65-0.94,5.54-0.92,8.18,0.04
		c1.31,0.47,2.39,0.83,2.39,0.83c5.43,0.29,5.43,5.72,5.43,5.72c2.57,14.3,8.58,18.59,8.58,18.59c5.15-0.29-3.43,4.86-3.43,4.86
		c-13.15,4.86-11.15,16.3-11.15,16.3l-1.72,0.57v8.01l5.15-0.29c2,4.58-4.29,5.43-4.29,5.43c-11.44,3.43-11.15,12.01-11.15,12.01
		h10.87l0.86-2h2.57l1.72-5.43c13.44-7.15,17.73-22.02,17.73-22.02c5.72-4.29,8.58-9.44,8.58-9.44l0.22-1.87
		c0.21-1.78,1.39-3.3,3.07-3.93c20.76-7.74,3.86-15.93,3.86-15.93c-8.58,0-6.58-4.29-6.58-4.29c24.02-20.02,22.02-39.75,22.02-39.75
		c1.43-5.72,4.58,4,4.58,4c2.57,28.6,10.01,38.03,10.01,38.03c11.44,17.16,25.16,12.01,25.16,12.01
		C214.44,137.52,212.25,127.68,211.81,121.91z"/>
</g>
</svg>
