<svg width="30" height="30" viewBox="0 0 30 30" fill="none" xmlns="http://www.w3.org/2000/svg">
<g clip-path="url(#clip0_118_2109)">
<path d="M18.75 16.25C18.0588 16.25 17.5 16.81 17.5 17.5V22.5C17.5 23.1887 16.94 23.75 16.25 23.75H12.5V5C12.5 3.9325 11.82 2.97875 10.7975 2.62375L10.4275 2.5H16.25C16.94 2.5 17.5 3.06125 17.5 3.75V7.5C17.5 8.19 18.0588 8.75 18.75 8.75C19.4412 8.75 20 8.19 20 7.5V3.75C20 1.6825 18.3175 0 16.25 0H2.8125C2.765 0 2.725 0.02125 2.67875 0.0275C2.61875 0.0225 2.56125 0 2.5 0C1.12125 0 0 1.12125 0 2.5V25C0 26.0675 0.68 27.0212 1.7025 27.3762L9.225 29.8837C9.48 29.9625 9.73375 30 10 30C11.3787 30 12.5 28.8787 12.5 27.5V26.25H16.25C18.3175 26.25 20 24.5675 20 22.5V17.5C20 16.81 19.4412 16.25 18.75 16.25Z" fill="#6460F2"/>
<path d="M29.6338 11.6162L24.6338 6.61624C24.2763 6.25874 23.7388 6.15124 23.2713 6.34499C22.805 6.53874 22.5 6.99499 22.5 7.49999V11.25H17.5C16.81 11.25 16.25 11.81 16.25 12.5C16.25 13.19 16.81 13.75 17.5 13.75H22.5V17.5C22.5 18.005 22.805 18.4612 23.2713 18.655C23.7388 18.8487 24.2763 18.7412 24.6338 18.3837L29.6338 13.3837C30.1225 12.895 30.1225 12.105 29.6338 11.6162Z" fill="#6460F2"/>
</g>
<defs>
<clipPath id="clip0_118_2109">
<rect width="30" height="30" fill="white"/>
</clipPath>
</defs>
</svg>
