<?xml version="1.0" encoding="utf-8"?>
<!-- Generator: Adobe Illustrator 24.1.1, SVG Export Plug-In . SVG Version: 6.00 Build 0)  -->
<svg version="1.1" id="Layer_1" xmlns="http://www.w3.org/2000/svg" xmlns:xlink="http://www.w3.org/1999/xlink" x="0px" y="0px"
	 viewBox="0 0 186.02 185.12" style="enable-background:new 0 0 186.02 185.12;" xml:space="preserve">
<style type="text/css">
	.st0{fill:#FF827A;}
</style>
<g>
	<g>
		<path class="st0" d="M182.11,132.13l-29.55-27.92l-15.65-34.1c-8.92-19.43-22.53-16.51-23.36-16.31c0,0-0.01,0.01-0.01,0.01H72.49
			c0,0-0.01-0.01-0.01-0.01c-0.83-0.2-14.45-3.12-23.36,16.31l-15.65,34.1L3.91,132.13c-5.01,4.73-5.24,12.64-0.5,17.65
			s12.64,5.24,17.65,0.5l17.75-16.77l15.33-14.48L64.2,97.09v36.87l-39.36,21.12c-8.05,2.82-12.3,11.63-9.48,19.69v0
			c2.82,8.05,11.63,12.3,19.69,9.48l57.96-15.4l57.96,15.4c8.05,2.82,16.87-1.42,19.69-9.48v0c2.82-8.05-1.42-16.87-9.48-19.69
			l-39.36-21.12V97.09l10.07,21.94l15.33,14.48l17.75,16.77c5.01,4.73,12.91,4.51,17.65-0.5S187.12,136.87,182.11,132.13z"/>
	</g>
	<g>
		<circle class="st0" cx="93.01" cy="23.24" r="23.24"/>
	</g>
</g>
</svg>
