<?xml version="1.0" encoding="utf-8"?>
<!-- Generator: Adobe Illustrator 24.1.1, SVG Export Plug-In . SVG Version: 6.00 Build 0)  -->
<svg version="1.1" id="Layer_1" xmlns="http://www.w3.org/2000/svg" xmlns:xlink="http://www.w3.org/1999/xlink" x="0px" y="0px"
	 viewBox="0 0 187.5 198.69" style="enable-background:new 0 0 187.5 198.69;" xml:space="preserve">
<style type="text/css">
	.st0{fill:#FF827A;}
</style>
<g>
	<path class="st0" d="M52.07,27.44v25.31v11.72v80.95c-6.28-1.39-13.41-1.46-20.71,0.11c-20.2,4.34-34.04,19.5-30.92,33.86
		c3.12,14.35,22.03,22.47,42.23,18.13c18.79-4.04,32.07-17.44,31.32-30.84c0.02-0.21,0.04-0.42,0.04-0.63V60.02l91.95-18.63v81.14
		c-6-1.33-12.78-1.37-19.73,0.18c-19.53,4.34-32.91,19.5-29.89,33.86c3.02,14.35,21.3,22.47,40.83,18.13
		c17.64-3.92,30.26-16.67,30.32-29.67c0-0.01,0-0.03,0-0.04V37.04v-7.1V0L52.07,27.44z"/>
</g>
</svg>
