<?xml version="1.0" encoding="utf-8"?>
<!-- Generator: Adobe Illustrator 24.1.1, SVG Export Plug-In . SVG Version: 6.00 Build 0)  -->
<svg version="1.1" id="Layer_1" xmlns="http://www.w3.org/2000/svg" xmlns:xlink="http://www.w3.org/1999/xlink" x="0px" y="0px"
	 viewBox="0 0 191.5 193.89" style="enable-background:new 0 0 191.5 193.89;" xml:space="preserve">
<style type="text/css">
	.st0{fill:#FF827A;}
</style>
<g>
	<g>
		<path class="st0" d="M179.09,12.68l-0.3-0.3c-9.94-9.78-23.44-14.07-37.07-11.78c-13.37,2.23-35.07,11.41-44.75,46.18
			c-0.4-0.09-0.8-0.13-1.21-0.13c-1.5,0.01-3,0.58-4.16,1.73c-2.3,2.3-2.3,6.02,0,8.31l2.61,2.61l10.45,10.45l4.09,4.09l9.08,9.08
			l3.95,3.95l10.16,10.16l4.05,4.05c1.15,1.15,2.65,1.72,4.16,1.73c1.5-0.01,3-0.58,4.16-1.73c1.99-1.99,2.25-5.04,0.8-7.31
			c9.57-2.9,17.71-6.66,24.32-11.25c11.99-8.34,19.22-19.36,21.47-32.76C193.19,36.16,188.88,22.64,179.09,12.68z M121.92,70.39
			l-0.85-0.85c3.77-32.25,16.53-39.82,25.29-41.3c4.9-0.82,9.51,0.92,12.77,4.13c3.21,3.26,4.95,7.88,4.12,12.77
			C161.78,53.9,154.07,65.1,121.92,70.39z M179.3,47.83c-2.98,17.79-17.63,29.99-43.59,36.35l-3.76-3.76
			c25.72-5.72,40.14-16.92,42.89-33.34c1.41-8.42-1.26-16.78-7.33-22.96l-0.14-0.14c-6.18-6.07-14.54-8.75-22.96-7.33
			c-12.41,2.08-27.74,11.35-33.67,42.57l-3.83-3.83c6.82-31.37,23.31-40.94,36.74-43.2c9.86-1.66,19.67,1.47,26.88,8.57l0.17,0.17
			C177.84,28.17,180.97,37.97,179.3,47.83z"/>
	</g>
	<g>
		<path class="st0" d="M88.81,59.49c-2.3-2.3-6.02-2.3-8.31,0s-2.3,6.02,0,8.31l44.4,44.4c2.29,2.29,6.02,2.29,8.31,0
			c2.29-2.3,2.29-6.02,0-8.31L88.81,59.49z"/>
	</g>
	<g>
		<path class="st0" d="M66.6,81.69c-2.3-2.3-6.02-2.3-8.31,0c-2.3,2.3-2.3,6.02,0,8.31l44.4,44.4c2.29,2.3,6.02,2.3,8.31,0
			c2.29-2.3,2.29-6.02,0-8.31L66.6,81.69z"/>
	</g>
	<g>
		<path class="st0" d="M97.28,134.57l-10.45-10.45l-4.1-4.1l-9.08-9.08L69.71,107L59.55,96.84L55.5,92.8
			c-1.14-1.14-2.65-1.72-4.16-1.73c-1.5,0.01-3.01,0.58-4.16,1.73c-1.99,1.99-2.25,5.04-0.8,7.31c-9.58,2.9-17.71,6.66-24.32,11.25
			c-12,8.34-19.22,19.36-21.47,32.76c-2.29,13.62,2.01,27.14,11.8,37.09l0.31,0.31c9.93,9.77,23.45,14.06,37.07,11.78
			c13.37-2.24,35.07-11.41,44.75-46.18c0.4,0.08,0.81,0.13,1.21,0.13c1.5-0.01,3.01-0.58,4.16-1.73c2.3-2.3,2.29-6.02,0-8.31
			L97.28,134.57z M70.43,124.35c-3.78,32.25-16.53,39.83-25.29,41.3c-4.9,0.83-9.51-0.91-12.77-4.12
			c-3.21-3.26-4.95-7.88-4.12-12.78c1.47-8.76,9.19-19.96,41.35-25.24L70.43,124.35z M47.83,181.7c-9.86,1.66-19.66-1.46-26.88-8.57
			l-0.17-0.17c-7.13-7.24-10.25-17.04-8.6-26.91c2.99-17.79,17.64-29.99,43.6-36.35l3.77,3.77c-25.73,5.72-40.15,16.92-42.9,33.34
			c-1.41,8.41,1.26,16.78,7.33,22.96l0.13,0.13c6.18,6.08,14.55,8.75,22.96,7.34c12.41-2.09,27.73-11.35,33.67-42.58l3.83,3.83
			C77.76,169.88,61.27,179.44,47.83,181.7z"/>
	</g>
	<g>
		<path class="st0" d="M82.69,76.04c-9.78-9.78-14.14-23.75-11.65-37.38l-11.56-2.11c-3.17,17.42,2.4,35.29,14.97,47.86l39.26,38.16
			c2.3,2.24,5.98,2.21,8.25-0.06c2.32-2.32,2.29-6.08-0.06-8.37L82.69,76.04z"/>
	</g>
</g>
</svg>
