<?xml version="1.0" encoding="utf-8"?>
<!-- Generator: Adobe Illustrator 24.1.1, SVG Export Plug-In . SVG Version: 6.00 Build 0)  -->
<svg version="1.1" id="Layer_1" xmlns="http://www.w3.org/2000/svg" xmlns:xlink="http://www.w3.org/1999/xlink" x="0px" y="0px"
	 viewBox="0 0 162.69 159.08" style="enable-background:new 0 0 162.69 159.08;" xml:space="preserve">
<style type="text/css">
	.st0{fill:#FF827A;}
</style>
<g>
	<g>
		<circle class="st0" cx="18.75" cy="140.33" r="18.75"/>
	</g>
	<g>
		<circle class="st0" cx="61.83" cy="140.33" r="18.75"/>
	</g>
	<g>
		<circle class="st0" cx="104.91" cy="140.33" r="18.75"/>
	</g>
	<g>
		
			<ellipse transform="matrix(0.3827 -0.9239 0.9239 0.3827 -40.7909 219.6062)" class="st0" cx="143.94" cy="140.33" rx="18.75" ry="18.75"/>
	</g>
	<g>
		<path class="st0" d="M142.03,117.17c11.53-1.25,13.08-6.39,13.21-8.58c0.04-0.73,0.14-1.47,0.29-2.18
			c2.35-10.84-15.5-17.16-15.5-17.16c-36.58-7.26-48.45-13.67-52.21-16.63c-1.2-0.94-2.41-1.87-3.71-2.65
			c-10.35-6.21-6.47-30.24-4.45-39.8l0,0c0,0,0,0,0,0c0.17-0.83,0.33-1.54,0.47-2.13c0.28-1.93,0.34-4.93-1.05-7.89
			C75,13.06,63.68,6.51,56.16,2.75C45.91-2.38,33.33-0.24,25.78,8.38C11.6,24.58,10.36,56.53,10.36,56.53v48.28
			c15.96,6.38,75.79,12.37,75.79,12.37C102.49,119.17,142.03,117.17,142.03,117.17z"/>
	</g>
</g>
</svg>
