<?xml version="1.0" encoding="utf-8"?>
<!-- Generator: Adobe Illustrator 24.1.1, SVG Export Plug-In . SVG Version: 6.00 Build 0)  -->
<svg version="1.1" id="Layer_1" xmlns="http://www.w3.org/2000/svg" xmlns:xlink="http://www.w3.org/1999/xlink" x="0px" y="0px"
	 viewBox="0 0 176.32 201.74" style="enable-background:new 0 0 176.32 201.74;" xml:space="preserve">
<style type="text/css">
	.st0{fill:#FF827A;}
</style>
<g>
	<path class="st0" d="M173.32,143.11l-23.97-13.84l21.12-9.85c3-1.4,4.3-4.97,2.9-7.97c-1.4-3-4.97-4.3-7.97-2.9l-28.73,13.4
		l-36.5-21.08l36.5-21.08l28.73,13.4c3,1.4,6.57,0.1,7.97-2.9c1.4-3,0.1-6.57-2.9-7.97l-21.12-9.85l23.97-13.84
		c2.87-1.66,3.85-5.33,2.2-8.2c-1.66-2.87-5.33-3.85-8.2-2.2l-23.97,13.84l2.03-23.21c0.29-3.3-2.15-6.21-5.45-6.5
		c-3.3-0.29-6.21,2.15-6.5,5.45l-2.76,31.58l-36.5,21.08V48.33l25.97-18.18c2.71-1.9,3.37-5.64,1.47-8.36s-5.64-3.37-8.36-1.47
		L94.16,33.68V6c0-3.31-2.69-6-6-6s-6,2.69-6,6v27.68L63.08,20.31c-2.71-1.9-6.46-1.24-8.36,1.47c-1.9,2.71-1.24,6.46,1.47,8.36
		l25.97,18.18v42.15L45.66,69.4l-2.76-31.58c-0.29-3.3-3.2-5.74-6.5-5.45c-3.3,0.29-5.74,3.2-5.45,6.5l2.03,23.21L9,48.24
		c-2.87-1.66-6.54-0.67-8.2,2.2s-0.67,6.54,2.2,8.2l23.97,13.84L5.85,82.32c-3,1.4-4.3,4.97-2.9,7.97c1.4,3,4.97,4.3,7.97,2.9
		l28.73-13.4l36.5,21.08l-36.5,21.08l-28.73-13.4c-3-1.4-6.57-0.1-7.97,2.9c-1.4,3-0.1,6.57,2.9,7.97l21.12,9.85L3,143.11
		c-2.87,1.66-3.85,5.33-2.2,8.2s5.33,3.85,8.2,2.2l23.97-13.84l-2.03,23.21c-0.29,3.3,2.15,6.21,5.45,6.5
		c3.3,0.29,6.21-2.15,6.5-5.45l2.76-31.58l36.5-21.08v42.15L56.19,171.6c-2.71,1.9-3.37,5.64-1.47,8.36s5.64,3.37,8.36,1.47
		l19.09-13.36v27.68c0,3.31,2.69,6,6,6s6-2.69,6-6v-27.68l19.09,13.36c2.71,1.9,6.46,1.24,8.36-1.47c1.9-2.71,1.24-6.46-1.47-8.36
		l-25.97-18.18v-42.15l36.5,21.08l2.76,31.58c0.29,3.3,3.2,5.74,6.5,5.45c3.3-0.29,5.74-3.2,5.45-6.5l-2.03-23.21l23.97,13.84
		c2.87,1.66,6.54,0.67,8.2-2.2C177.17,148.44,176.19,144.77,173.32,143.11z M88.74,100.87l-0.29,0.5h-0.58l-0.29-0.5l0.29-0.5h0.58
		L88.74,100.87z"/>
</g>
</svg>
