<?xml version="1.0" encoding="utf-8"?>
<!-- Generator: Adobe Illustrator 24.1.1, SVG Export Plug-In . SVG Version: 6.00 Build 0)  -->
<svg version="1.1" id="Layer_1" xmlns="http://www.w3.org/2000/svg" xmlns:xlink="http://www.w3.org/1999/xlink" x="0px" y="0px"
	 viewBox="0 0 190.76 190.76" style="enable-background:new 0 0 190.76 190.76;" xml:space="preserve">
<style type="text/css">
	.st0{fill:#FF827A;}
</style>
<g>
	<g>
		<path class="st0" d="M74.53,47.68c3.25-12.44,0-26.23-9.75-35.98C54.53,1.45,39.81-1.61,26.88,2.52l23.7,23.7L26.32,50.47
			l-23.7-23.7C-1.5,39.7,1.55,54.42,11.81,64.68c9.75,9.75,23.54,12.99,35.98,9.75L160.56,187.2c3.8,3.8,9.95,3.8,13.75,0
			l12.99-12.99c3.8-3.8,3.8-9.95,0-13.75L74.53,47.68z"/>
	</g>
	<g>
		<path class="st0" d="M2.89,161.14c-3.85,3.85-3.85,10.1,0,13.95l12.78,12.78c3.85,3.85,10.1,3.85,13.95,0l52.12-52.12
			l-26.73-26.73L2.89,161.14z"/>
	</g>
	<g>
		<polygon class="st0" points="131.86,77.65 152.65,56.87 171.03,57.29 190.76,18.94 171.82,0 133.47,19.73 133.88,38.11 
			113.1,58.89 		"/>
	</g>
</g>
</svg>
