<svg width="30" height="30" viewBox="0 0 30 30" fill="none" xmlns="http://www.w3.org/2000/svg">
<g clip-path="url(#clip0_23_1087)">
<path d="M25.6694 16.0149H23.3493C23.5858 16.6624 23.715 17.3611 23.715 18.0893V26.8579C23.715 27.1616 23.6621 27.453 23.566 27.7241H27.4016C28.8344 27.7241 30 26.5584 30 25.1257V20.3455C30.0001 17.9576 28.0573 16.0149 25.6694 16.0149Z" fill="#6460F2"/>
<path d="M6.28507 18.0893C6.28507 17.361 6.41427 16.6624 6.65076 16.0149H4.33067C1.94274 16.0149 0 17.9576 0 20.3456V25.1257C0 26.5584 1.16561 27.7241 2.5984 27.7241H6.43408C6.33792 27.4529 6.28507 27.1616 6.28507 26.8579V18.0893Z" fill="#6460F2"/>
<path d="M17.652 13.7588H12.348C9.96007 13.7588 8.01733 15.7015 8.01733 18.0895V26.858C8.01733 27.3363 8.40511 27.7242 8.88347 27.7242H21.1166C21.5949 27.7242 21.9827 27.3364 21.9827 26.858V18.0895C21.9827 15.7015 20.04 13.7588 17.652 13.7588Z" fill="#6460F2"/>
<path d="M15 2.27588C12.1282 2.27588 9.79187 4.61225 9.79187 7.48411C9.79187 9.43207 10.867 11.1333 12.4548 12.0265C13.2079 12.4502 14.0761 12.6923 15 12.6923C15.924 12.6923 16.7922 12.4502 17.5453 12.0265C19.1331 11.1333 20.2082 9.43201 20.2082 7.48411C20.2082 4.61231 17.8718 2.27588 15 2.27588Z" fill="#6460F2"/>
<path d="M5.85456 7.13013C3.7068 7.13013 1.95953 8.8774 1.95953 11.0252C1.95953 13.1729 3.7068 14.9202 5.85456 14.9202C6.39937 14.9202 6.91816 14.8073 7.38943 14.6045C8.20423 14.2537 8.87607 13.6327 9.29179 12.8549C9.58359 12.3089 9.74959 11.6862 9.74959 11.0252C9.74959 8.87745 8.00232 7.13013 5.85456 7.13013Z" fill="#6460F2"/>
<path d="M24.1455 7.13013C21.9977 7.13013 20.2504 8.8774 20.2504 11.0252C20.2504 11.6862 20.4164 12.309 20.7082 12.8549C21.1239 13.6328 21.7958 14.2537 22.6106 14.6045C23.0819 14.8073 23.6006 14.9202 24.1455 14.9202C26.2932 14.9202 28.0405 13.1729 28.0405 11.0252C28.0405 8.8774 26.2932 7.13013 24.1455 7.13013Z" fill="#6460F2"/>
</g>
<defs>
<clipPath id="clip0_23_1087">
<rect width="30" height="30" fill="white"/>
</clipPath>
</defs>
</svg>
