<?xml version="1.0" encoding="utf-8"?>
<!-- Generator: Adobe Illustrator 24.1.1, SVG Export Plug-In . SVG Version: 6.00 Build 0)  -->
<svg version="1.1" id="Layer_1" xmlns="http://www.w3.org/2000/svg" xmlns:xlink="http://www.w3.org/1999/xlink" x="0px" y="0px"
	 viewBox="0 0 136.49 181.91" style="enable-background:new 0 0 136.49 181.91;" xml:space="preserve">
<style type="text/css">
	.st0{fill:#FF827A;}
</style>
<g>
	<g>
		<path class="st0" d="M63.94,138.09c-11.64-2.58-21.19-12.75-21.19-24.86c0-5.31,1.66-10.44,4.67-14.71
			c1.88-2.66,2.1-6.25,0.12-8.82c-2.93-3.8-8.64-3.71-11.41,0.09c-4.92,6.75-7.65,14.95-7.65,23.44c0,18.96,14.4,34.86,32.47,38.81
			c4.47,0.98,8.72-2.39,8.72-6.96C69.67,141.68,67.26,138.83,63.94,138.09z"/>
	</g>
	<g>
		<path class="st0" d="M128.48,81.58h0.01l-0.04-0.07c-2.35-4.39-5.17-8.49-8.39-12.24L75.02,3.57c-3.26-4.76-10.29-4.76-13.55,0
			L16.46,69.24L8.02,81.55c0,0.01-0.01,0.02-0.01,0.02C2.9,91.14,0,102.06,0,113.66c0,37.69,30.56,68.25,68.25,68.25
			s68.25-30.56,68.25-68.25C136.49,102.06,133.59,91.14,128.48,81.58z M68.25,167.65c-29.77,0-53.98-24.22-53.98-53.98
			c0-12.01,3.95-23.11,10.6-32.09c4.25-5.73,0,0,10.21-14.27l12.91-18.84l20.26-29.56l20.26,29.56l12.91,18.83
			c10.2,14.27,5.95,8.54,10.2,14.27c6.66,8.98,10.6,20.08,10.6,32.09C122.23,143.43,98.01,167.65,68.25,167.65z"/>
	</g>
</g>
</svg>
