<?xml version="1.0" encoding="utf-8"?>
<!-- Generator: Adobe Illustrator 24.1.1, SVG Export Plug-In . SVG Version: 6.00 Build 0)  -->
<svg version="1.1" id="Layer_1" xmlns="http://www.w3.org/2000/svg" xmlns:xlink="http://www.w3.org/1999/xlink" x="0px" y="0px"
	 viewBox="0 0 190.06 188.87" style="enable-background:new 0 0 190.06 188.87;" xml:space="preserve">
<style type="text/css">
	.st0{fill:#FF827A;}
</style>
<g>
	<g>
		
			<ellipse transform="matrix(0.3827 -0.9239 0.9239 0.3827 82.8301 168.7318)" class="st0" cx="167.68" cy="22.38" rx="22.38" ry="22.38"/>
	</g>
	<g>
		<path class="st0" d="M50.25,68.81c5.02,5.24,13.28,5.57,18.71,0.75l28.51-27.71l17.36,12.81l-11.08,12.08
			c15.71,2,29.71,9.55,39.96,20.63l10.3-15.14c6.35-9.33,4.24-21.99-4.79-28.76l-38.58-28.93c-7.14-5.35-17.09-4.81-23.61,1.28
			L50.79,49.57C45.27,54.71,45.03,63.37,50.25,68.81L50.25,68.81z"/>
	</g>
	<g>
		<path class="st0" d="M95.37,75.23c-20.82,0-39.01,11.2-48.91,27.9H20.59c-2.18,0-3.94,1.77-3.94,3.94v0
			c0,2.18,1.77,3.94,3.94,3.94h21.99h23.98c2.43,0,4.41,1.97,4.41,4.41c0,2.43-1.97,4.41-4.41,4.41H39.89
			c-0.6,2.73-1.01,5.53-1.2,8.39H3.94c-2.18,0-3.94,1.77-3.94,3.94c0,2.18,1.77,3.94,3.94,3.94h16.08h18.68h48.28
			c2.43,0,4.41,1.97,4.41,4.41c0,2.43-1.97,4.41-4.41,4.41H40.03c0.59,2.54,1.34,5.02,2.26,7.42H24.9c-2.18,0-3.94,1.77-3.94,3.94
			c0,2.18,1.77,3.94,3.94,3.94h21.13h20.32c2.43,0,4.41,1.97,4.41,4.41c0,2.43-1.97,4.41-4.41,4.41H52.26
			c10.42,12.13,25.86,19.83,43.11,19.83c31.38,0,56.82-25.44,56.82-56.82C152.19,100.67,126.75,75.23,95.37,75.23z"/>
	</g>
	<g>
		<path class="st0" d="M157.93,111.49c2.13,6.47,3.3,13.38,3.3,20.56c0,20.31-9.24,38.49-23.74,50.58
			c11.39,2.06,16.47-7.14,16.47-7.14l16.7-39.9C175.28,124.15,166.79,116.31,157.93,111.49z"/>
	</g>
</g>
</svg>
